<?xml version="1.0" encoding="utf-8"?>
<!-- Generator: Adobe Illustrator 19.0.0, SVG Export Plug-In . SVG Version: 6.00 Build 0)  -->
<svg version="1.1" id="Layer_1" xmlns="http://www.w3.org/2000/svg" xmlns:xlink="http://www.w3.org/1999/xlink" x="0px" y="0px"
	 viewBox="-52.2 53 58 20.8" style="enable-background:new -52.2 53 58 20.8;" xml:space="preserve">
<style type="text/css">
	.st0{fill:#F3CCE1;}
	.st1{fill:#009D5D;}
	.st2{fill:#FFFFFF;}
	.st3{fill:#5C4EA1;}
	.st4{opacity:0.75;}
	.st5{fill:#FFFFFF;stroke:#080C13;stroke-width:0.3;stroke-miterlimit:10;}
	.st6{font-family:'LaoMN';}
	.st7{font-size:12px;}
	.st8{fill:#0AB04B;stroke:#080C13;stroke-width:0.3;stroke-miterlimit:10;}
	.st9{fill:none;stroke:#080C13;stroke-width:0.3;stroke-miterlimit:10;}
</style>
<circle class="st0" cx="-31.1" cy="59.9" r="0.6"/>
<circle class="st0" cx="-20.8" cy="70.8" r="0.6"/>
<circle class="st0" cx="-16.7" cy="57.5" r="0.9"/>
<circle class="st0" cx="-21.1" cy="68.6" r="0.9"/>
<g>
	
		<image style="overflow:visible;opacity:0.51;" width="24" height="31" xlink:href="F69F8126605464A0.png"  transform="matrix(1 0 0 1 -13.252 51.308)">
	</image>
	<g>
		<g>
			<path class="st1" d="M-1.6,63c-1.2-0.8-1.5-2.4-0.7-3.5l3-4.6c0.8-1.2,2.4-1.5,3.5-0.7c1.2,0.8,1.5,2.4,0.7,3.5l-3,4.6
				C1.2,63.4-0.4,63.8-1.6,63z"/>
			<path class="st1" d="M-1.1,62.9h-0.2c-0.1,0-0.2,0.1-0.3,0.1c-0.3,0.1-0.7,0.4-1.1,0.9s-0.9,1.1-1.4,1.7c-0.5,0.7-1,1.4-1.3,2.2
				c-0.7,1.6-0.9,3.4-1.4,4.6C-7,73-7.3,73.5-7.5,73.9c-0.2,0.3-0.3,0.5-0.3,0.5s0.1-0.2,0.3-0.5c0.2-0.3,0.4-0.8,0.6-1.5
				c0.4-1.3,0.5-3,1.1-4.8c0.3-0.9,0.8-1.7,1.2-2.4c0.4-0.6,0.8-1.2,1.3-1.8c0.4-0.6,0.9-1,1.3-1.2c0.2-0.1,0.4-0.2,0.5-0.2
				s0.2-0.1,0.2-0.1L-1.1,62.9z"/>
			<path class="st1" d="M-0.5,62.2L-0.5,62.2c0,0.2,0.1,0.4,0,0.6c0,0.4-0.1,1-0.5,1.5c-0.2,0.3-0.4,0.5-0.7,0.8
				c-0.3,0.2-0.6,0.5-0.9,0.6C-3.3,66-4,66.2-4.8,66.4c-0.7,0.2-1.4,0.4-2.1,0.7c-0.6,0.3-1.2,0.6-1.6,1C-8.9,68.5-9.1,69-9,69.3
				c0,0.3,0.2,0.5,0.2,0.5s-0.1-0.1-0.2-0.4c-0.1-0.3,0-0.9,0.4-1.3c0.4-0.4,1-0.8,1.6-1.2s1.3-0.7,2.1-0.9c0.7-0.3,1.4-0.5,2-0.9
				c0.3-0.2,0.5-0.4,0.7-0.6c0.2-0.2,0.4-0.4,0.5-0.7c0.2-0.4,0.3-0.8,0.3-1.1v-0.4C-1.4,62.3-0.5,62.2-0.5,62.2z"/>
			<path class="st1" d="M-0.5,63.2h-0.1c0,0-0.1,0.1-0.2,0.1c-0.2,0.2-0.5,0.5-0.8,1.1c-0.3,0.6-0.6,1.2-0.8,2
				C-2.6,67.1-2.9,68-3,68.8c-0.2,0.8-0.1,1.7-0.2,2.5c-0.1,0.8-0.5,1.5-1,2c-0.4,0.5-0.9,0.8-1.2,1c-0.3,0.2-0.5,0.3-0.5,0.3
				s0.2-0.1,0.5-0.3c0.3-0.2,0.7-0.6,1.1-1.1s0.8-1.2,0.8-1.9c0-0.8,0-1.7,0.1-2.5c0.1-0.9,0.2-1.7,0.4-2.5c0.2-0.8,0.5-1.5,0.7-2.1
				c0.2-0.6,0.6-1.2,0.9-1.5c0.2-0.2,0.4-0.3,0.5-0.3s0.2-0.1,0.2-0.1S-0.5,63.2-0.5,63.2z"/>
			<circle class="st2" cx="1.8" cy="59.9" r="1"/>
			<circle class="st2" cx="2.6" cy="58.3" r="0.3"/>
			<circle class="st2" cx="1.4" cy="56.4" r="0.6"/>
		</g>
	</g>
</g>
<g>
	
		<image style="overflow:visible;opacity:0.51;" width="31" height="25" xlink:href="F69F8126605464A1.png"  transform="matrix(1 0 0 1 -57.252 56.308)">
	</image>
	<g>
		<g>
			<path class="st3" d="M-42.4,66.5c0.7,1.2,0.2,2.8-1.1,3.5l-4.9,2.5c-1.2,0.7-2.8,0.2-3.5-1.1c-0.7-1.2-0.2-2.8,1.1-3.5l4.9-2.6
				C-44.6,64.8-43.1,65.2-42.4,66.5z"/>
			<path class="st3" d="M-42.9,66.3h0.2c0.1,0,0.2,0,0.4,0.1c0.3,0,0.8,0,1.4-0.2c0.6-0.2,1.3-0.5,2.1-0.8c0.7-0.3,1.5-0.7,2.2-1.3
				c1.4-1.1,2.5-2.5,3.5-3.4c0.5-0.4,1-0.8,1.3-0.9c0.3-0.2,0.5-0.3,0.5-0.3s-0.2,0.1-0.5,0.3c-0.3,0.2-0.8,0.5-1.2,1
				c-1,0.9-1.9,2.4-3.3,3.6c-0.7,0.6-1.5,1.1-2.2,1.5c-0.7,0.4-1.4,0.8-2.1,1c-0.6,0.3-1.3,0.4-1.7,0.4H-43
				C-43,67.3-42.9,66.3-42.9,66.3z"/>
			<path class="st3" d="M-43.7,66.7L-43.7,66.7c0-0.2,0.1-0.4,0.2-0.5c0.2-0.4,0.6-0.8,1.2-1.1c0.3-0.1,0.6-0.3,1-0.3
				c0.3-0.1,0.7-0.1,1.1-0.1c0.8,0,1.5,0.2,2.3,0.4c0.7,0.2,1.5,0.3,2.2,0.4c0.7,0,1.4,0,1.9-0.1s0.9-0.5,1-0.8
				c0.1-0.3,0.1-0.5,0.1-0.5s0.1,0.2,0,0.5c-0.1,0.3-0.4,0.7-1,0.9c-0.6,0.2-1.2,0.2-2,0.2c-0.7,0-1.5-0.1-2.3-0.2
				c-0.7-0.1-1.5-0.2-2.2-0.2c-0.3,0-0.6,0.1-0.9,0.1c-0.3,0.1-0.5,0.2-0.7,0.3c-0.4,0.3-0.6,0.6-0.7,0.8c-0.1,0.1-0.1,0.2-0.1,0.3
				v0.1C-42.6,66.9-43.7,66.7-43.7,66.7z"/>
			<path class="st3" d="M-43.3,65.8h0.4c0.3,0,0.7-0.2,1.2-0.6c0.5-0.4,1.1-0.8,1.7-1.3c0.6-0.5,1.2-1.2,1.7-1.8
				c0.5-0.7,0.9-1.4,1.4-2.1s1.2-1.1,1.8-1.3c0.6-0.2,1.2-0.3,1.5-0.3h0.6c0,0-0.2,0-0.6,0.1c-0.4,0.1-0.9,0.2-1.5,0.4
				c-0.6,0.2-1.2,0.6-1.6,1.3c-0.4,0.7-0.8,1.5-1.3,2.2s-1,1.4-1.6,2c-0.6,0.6-1.1,1.1-1.7,1.5c-0.5,0.4-1.1,0.7-1.5,0.8h-0.8
				C-43.6,66.7-43.3,65.8-43.3,65.8z"/>
			<circle class="st2" cx="-48.3" cy="69.4" r="1"/>
			<circle class="st2" cx="-45.6" cy="67" r="0.6"/>
		</g>
	</g>
</g>
<text transform="matrix(1 0 0 1 -50.9249 66.9467)" class="st4"><tspan x="0" y="0" class="st5 st6 st7">Nano</tspan><tspan x="29.4" y="0" class="st8 st6 st7">ARG</tspan></text>
<g>
	
		<image style="overflow:visible;opacity:0.32;" width="75" height="35" xlink:href="F69F8126605464A7.png"  transform="matrix(1 0 0 1 -60.5039 50.0561)">
	</image>
	<g>
		<text transform="matrix(1 0 0 1 -50.9251 66.9471)" class="st9 st6 st7">NanoARG</text>
	</g>
</g>
</svg>
