<?xml version="1.0" encoding="utf-8"?>
<!-- Generator: Adobe Illustrator 19.0.0, SVG Export Plug-In . SVG Version: 6.00 Build 0)  -->
<svg version="1.1" id="Capa_1" xmlns="http://www.w3.org/2000/svg" xmlns:xlink="http://www.w3.org/1999/xlink" x="0px" y="0px"
	 viewBox="0 0 1200 1200" style="enable-background:new 0 0 1200 1200;" xml:space="preserve">
<style type="text/css">
	.st0{fill-rule:evenodd;clip-rule:evenodd;fill:#5896CC;}
	.st1{fill-rule:evenodd;clip-rule:evenodd;fill:#97BE4E;}
	.st2{fill-rule:evenodd;clip-rule:evenodd;fill:#ADD95B;}
	.st3{fill-rule:evenodd;clip-rule:evenodd;fill:#F0F8FF;}
	.st4{fill-rule:evenodd;clip-rule:evenodd;fill:#DB7C64;}
	.st5{fill-rule:evenodd;clip-rule:evenodd;fill:#83B8E6;}
	.st6{fill:#FFFFFF;}
	.st7{fill-rule:evenodd;clip-rule:evenodd;fill:#FFAE00;}
	.st8{fill-rule:evenodd;clip-rule:evenodd;fill:#3A6387;}
	.st9{fill-rule:evenodd;clip-rule:evenodd;fill:#FFFFFF;}
	.st10{fill-rule:evenodd;clip-rule:evenodd;fill:#E6E6E6;}
	.st11{fill-rule:evenodd;clip-rule:evenodd;fill:#FFDC8F;}
	.st12{fill:#6A8733;}
	.st13{fill-rule:evenodd;clip-rule:evenodd;fill:#3A6287;}
	.st14{fill-rule:evenodd;clip-rule:evenodd;fill:#ACD85B;stroke:#ACD85B;stroke-width:0.216;stroke-miterlimit:22.9256;}
	.st15{fill-rule:evenodd;clip-rule:evenodd;fill:#ACD85B;}
	.st16{fill-rule:evenodd;clip-rule:evenodd;fill:#E9B68C;}
	.st17{fill-rule:evenodd;clip-rule:evenodd;fill:#FFD6B6;}
	.st18{fill-rule:evenodd;clip-rule:evenodd;fill:#FFE8D6;}
	.st19{fill-rule:evenodd;clip-rule:evenodd;fill:#6A8733;}
	.st20{fill-rule:evenodd;clip-rule:evenodd;fill:#FFE2B1;}
	.st21{fill-rule:evenodd;clip-rule:evenodd;fill:#C85234;}
	.st22{fill-rule:evenodd;clip-rule:evenodd;fill:#698733;}
	.st23{fill-rule:evenodd;clip-rule:evenodd;fill:#FFD6B6;stroke:#FFE8D6;stroke-width:0.216;stroke-miterlimit:22.9256;}
	.st24{fill-rule:evenodd;clip-rule:evenodd;fill:#FFD7B7;}
	.st25{fill-rule:evenodd;clip-rule:evenodd;fill:#EAB78D;}
	.st26{fill:#5896CC;}
	.st27{fill-rule:evenodd;clip-rule:evenodd;fill:#FFE3B2;}
	.st28{fill-rule:evenodd;clip-rule:evenodd;fill:#C95234;}
	.st29{fill-rule:evenodd;clip-rule:evenodd;fill:#B7C7BA;}
	.st30{fill-rule:evenodd;clip-rule:evenodd;fill:#80A240;}
	.st31{fill-rule:evenodd;clip-rule:evenodd;fill:#D0DAD2;}
	.st32{fill-rule:evenodd;clip-rule:evenodd;fill:#FDB82A;}
	.st33{fill-rule:evenodd;clip-rule:evenodd;fill:#FCC355;}
	.st34{fill-rule:evenodd;clip-rule:evenodd;fill:#FACD7F;}
	.st35{fill-rule:evenodd;clip-rule:evenodd;fill:#E8EDE9;}
	.st36{fill-rule:evenodd;clip-rule:evenodd;fill:#628AAC;}
	.st37{fill-rule:evenodd;clip-rule:evenodd;fill:#8AB0D2;}
	.st38{fill-rule:evenodd;clip-rule:evenodd;fill:#B2D7F7;}
	.st39{fill-rule:evenodd;clip-rule:evenodd;fill:#8F2E15;}
	.st40{fill-rule:evenodd;clip-rule:evenodd;fill:#A8482F;}
	.st41{fill-rule:evenodd;clip-rule:evenodd;fill:#C2624A;}
	.st42{fill-rule:evenodd;clip-rule:evenodd;fill:#5E7F90;}
	.st43{fill-rule:evenodd;clip-rule:evenodd;fill:#2A4F6E;}
	.st44{fill-rule:evenodd;clip-rule:evenodd;fill:#F9A818;}
	.st45{fill:#BDD0D9;}
	.st46{fill-rule:evenodd;clip-rule:evenodd;fill:#D48D13;}
	.st47{fill-rule:evenodd;clip-rule:evenodd;fill:#FAB4AF;}
	.st48{fill-rule:evenodd;clip-rule:evenodd;fill:#487BA8;}
</style>
<path class="st0" d="M600.5,1199.9c330.2,0,599.5-269.5,599.5-599.9S930.7,0,600.5,0C270.3,0,1,269.5,1,599.9
	S270.3,1199.9,600.5,1199.9z"/>
<g>
	<path class="st1" d="M555.8,665.5c-5.9,2.5-12.1,3.7-18.1,3.7v-42.6c0.5,0,1.1-0.1,1.6-0.3c1.1-0.5,1.9-1.3,2.3-2.4l39.9,15
		C577.1,650.4,568.1,660.3,555.8,665.5L555.8,665.5z M537.7,618.1c1.6,0,3.2,1,3.8,2.6c0.4,1,0.4,2.1,0.1,3.1l39.9,15
		c4.1-10.8,4.2-23.1-0.7-34.6c-7.5-17.9-24.9-28.7-43.1-28.7V618.1z M537.7,669.1c-18.3,0-35.6-10.8-43.1-28.7
		c-4.8-11.5-4.7-23.8-0.7-34.6l39.9,15c-0.4,1-0.4,2.1,0.1,3.1c0.7,1.6,2.2,2.6,3.8,2.6V669.1L537.7,669.1z M537.7,575.5
		c-6,0-12.2,1.2-18.1,3.7c-12.3,5.2-21.3,15-25.7,26.7l0,0l39.9,15c0.4-1,1.2-1.9,2.3-2.4c0.5-0.2,1.1-0.3,1.6-0.3V575.5z"/>
	<path class="st2" d="M558.3,658.2v-8l7.2,2.7C563.3,654.9,560.9,656.7,558.3,658.2L558.3,658.2z M558.3,650.2l7.2,2.7l0,0
		c1.6-1.5,3.2-3.1,4.5-4.9l-11.7-9.3V650.2z M547,652l3.1,9.9c-1,0.3-2.1,0.6-3.1,0.8V652L547,652z M558.3,638.7l-10.4-8.2
		c-0.3,0.4-0.6,0.8-1,1.1v8.1l4.2,7.8l7.2,2.7v8c-0.4,0.2-0.8,0.4-1.1,0.6l-6.1-11.3l0,0l7.2,2.7V638.7L558.3,638.7z M547,625.7
		v-6.8C547.8,621.2,547.8,623.6,547,625.7z M545.4,647l1.6,5v10.7c-0.5,0.1-1,0.2-1.6,0.3V647L545.4,647z M547,618.9v6.8l0,0.1
		l-1.5-0.6v-9.1c0.6,0.7,1,1.5,1.4,2.3C546.9,618.6,546.9,618.8,547,618.9L547,618.9z M547,631.6v8.1l-1.6-2.9V633
		C546,632.6,546.5,632.1,547,631.6L547,631.6z M545.4,628.5c0.6-0.8,1.2-1.7,1.5-2.7l-1.5-0.6V628.5z M544.4,645l0.5,0.2l0.6,1.8v16
		c-0.4,0.1-0.7,0.1-1.1,0.2V645L544.4,645z M545.4,616.1v9.1l-1.1-0.4v-1.2c0.2-0.8,0.2-1.7,0-2.6v-6
		C544.7,615.4,545.1,615.7,545.4,616.1L545.4,616.1z M545.4,625.2l-1.1-0.4v4.8c0.4-0.3,0.7-0.7,1.1-1.1V625.2L545.4,625.2z
		 M545.4,633v3.8l-1.1-2v-1.2C544.7,633.5,545.1,633.2,545.4,633L545.4,633z M544.4,645l0.5,0.2l0,0l-0.5-1.5V645z M540.2,643.4
		l4.1,1.5v18.2c-1.4,0.2-2.7,0.4-4.1,0.5V643.4L540.2,643.4z M544.4,615v6c-0.1-0.5-0.2-0.9-0.4-1.4c-0.7-1.7-2.1-3-3.7-3.7v-3.3
		C541.8,613.2,543.2,613.9,544.4,615L544.4,615z M544.4,623.6v1.2l-0.3-0.1c-0.6,1.7-1.9,3.1-3.7,3.9l-0.1,0v3.3
		c0.4-0.1,0.8-0.3,1.3-0.4l0,0c1.1-0.5,2-1.1,2.8-1.8v-4.8l-0.3-0.1C544.2,624.4,544.3,624,544.4,623.6L544.4,623.6z M544.4,633.7
		v1.2l-0.5-0.9C544,633.8,544.2,633.8,544.4,633.7L544.4,633.7z M544.4,643.6l-2.7-8.7c-0.5,0.1-0.9,0.3-1.4,0.4v8.2l4.1,1.5V643.6
		L544.4,643.6z M540.2,597.8V581c0.6,0,1.2,0.1,1.7,0.1L540.2,597.8z M535.7,641.7l4.6,1.7v20.2c-2.3,0.1-4.6,0.1-6.9-0.1
		L535.7,641.7L535.7,641.7z M540.2,581v16.8l-0.5,5.2l0,0l-8.7-3.3v-18.2C534.1,581,537.2,580.8,540.2,581L540.2,581z M540.2,612.8
		v3.3c-1.6-0.7-3.5-0.7-5.2,0c-1.8,0.8-3.1,2.2-3.7,3.9l-0.3-0.1V615c0.8-0.7,1.8-1.4,2.8-1.8C536,612.3,538.2,612.2,540.2,612.8
		L540.2,612.8z M540.2,628.6v3.3c-3.3,0.9-6.8,0-9.2-2.3v-6c0.1,0.5,0.2,0.9,0.4,1.4C532.9,628.4,536.8,630,540.2,628.6L540.2,628.6
		z M540.2,635.2c-1.3,0.3-2.6,0.3-3.9,0.2l-0.7,6.3l4.6,1.7V635.2L540.2,635.2z M531,621c0.1-0.4,0.2-0.8,0.3-1.1l-0.3-0.1V621
		L531,621z M531,611v-1.1l0.5,0.9C531.3,610.8,531.2,610.9,531,611L531,611z M531,601l2.7,8.7c1.8-0.6,3.6-0.7,5.3-0.5l0.7-6.3
		l-8.7-3.3V601z M531,581.5v18.2l-0.5-0.2l0,0l0.5,1.5v-1.3l-0.5-0.2l-0.6-1.8v-16C530.3,581.6,530.6,581.5,531,581.5L531,581.5z
		 M531,609.8v1.1c-0.4,0.2-0.7,0.4-1.1,0.7v-3.8L531,609.8L531,609.8z M531,615v4.8l-1.1-0.4v-3.3C530.3,615.7,530.6,615.4,531,615
		L531,615z M531,619.8l-1.1-0.4v9.1c0.3,0.4,0.7,0.8,1.1,1.1v-6c-0.2-0.9-0.2-1.7,0-2.6V619.8z M529.9,581.7v16l-4.7-14.8
		C526.8,582.3,528.4,582,529.9,581.7L529.9,581.7z M529.9,607.9l-5.7-10.7l-7.2-2.7v11.5l10.4,8.2c0.7-0.9,1.6-1.8,2.6-2.5V607.9
		L529.9,607.9z M529.9,616.1v3.3l-1.5-0.6c-0.9,2.3-0.9,4.9,0.1,7.3c0.4,0.9,0.8,1.6,1.4,2.3v-9.1l-1.5-0.6l0,0
		C528.8,617.9,529.3,617,529.9,616.1L529.9,616.1z M517,594.4v-8c0.4-0.2,0.8-0.4,1.1-0.6l6.1,11.3l0,0L517,594.4z M517,586.5v8
		l-7.2-2.7l0,0c-1.6,1.5-3.2,3.1-4.5,4.9l11.7,9.3v-11.5l-7.2-2.7C512,589.7,514.4,587.9,517,586.5z"/>
</g>
<g>
	<polygon class="st3" points="725.5,372.2 820.6,189.5 1078.8,324.1 983.7,506.9 	"/>
	<g>
		<polygon class="st4" points="741.1,367 767.4,316.6 775.9,321 749.7,371.5 		"/>
		<polygon class="st5" points="756.6,375.1 839.3,216.1 868.5,231.3 785.8,390.3 		"/>
		<path class="st6" d="M771.2,375.4c-0.1-0.3,0.1-0.5,0.3-0.6c0.3-0.1,0.5,0.1,0.6,0.3l1.1,3.5l3.5-1.1c0.3-0.1,0.5,0.1,0.6,0.3
			c0.1,0.3-0.1,0.5-0.3,0.6l-4,1.2l0,0l0,0l0,0l0,0l0,0l0,0l0,0l0,0h0l0,0l0,0l0,0l0,0l0,0h0l0,0h0l0,0h0l0,0h0h0l0,0l0,0h0h0l0,0h0
			l0,0l0,0l0,0h0l0,0h0l0,0l0,0l0,0l0,0l0,0l0,0l0,0l0,0l0,0l0,0l0,0h0l0,0l0,0l0,0l0,0l0,0l0,0l0,0l0,0l0,0l0,0l0,0l0,0l0,0l0,0
			l0,0l0,0l0,0l0,0l0,0l0,0l0,0l0,0l0,0l0,0l0,0l0,0l0,0l0,0l0,0l0,0l0,0l0,0l0,0l0,0l0,0l0,0l0,0l0,0l0,0l0,0l0,0l0,0l0,0l0,0l0,0
			l0,0l0,0l0,0l0,0l0,0l0,0l0,0l0,0l0,0l0,0l0,0l0,0l0,0l0,0l0,0l0,0l0,0l0,0l0,0l0,0l0,0l0,0l0,0l0,0l0,0l0,0l0,0l0,0l0,0l0,0l0,0
			l0,0l0,0l0,0l0,0l0,0L771.2,375.4L771.2,375.4z M848,228c-0.3,0.1-0.4,0.4-0.3,0.6c0.1,0.3,0.4,0.4,0.6,0.3l3.5-1.1l1.1,3.5
			c0.1,0.3,0.4,0.4,0.6,0.3c0.3-0.1,0.4-0.4,0.3-0.6l-1.3-4v0l0,0l0,0l0,0l0,0l0,0v0l0,0l0,0l0,0l0,0l0,0l0,0l0,0l0,0l0,0l0,0l0,0
			l0,0l0,0l0,0l0,0l0,0l0,0l0,0l0,0l0,0l0,0l0,0l0,0l0,0l0,0l0,0l0,0l0,0l0,0l0,0l0,0l0,0l0,0l0,0l0,0l0,0l0,0l0,0l0,0l0,0l0,0l0,0
			l0,0l0,0l0,0l0,0l0,0l0,0l0,0l0,0l0,0l0,0l0,0l0,0l0,0l0,0l0,0l0,0l0,0l0,0l0,0l0,0l0,0l0,0l0,0l0,0l0,0l0,0l0,0l0,0l0,0l0,0l0,0
			l0,0l0,0l0,0l0,0l0,0l0,0l0,0l0,0l0,0l0,0l0,0l0,0l0,0h0l0,0l0,0l0,0l0,0l0,0l0,0h0h0h0h0h0l0,0l0,0l0,0l0,0l0,0h0l0,0h0l0,0l0,0
			l0,0l0,0l0,0l0,0l0,0l0,0l0,0l0,0l0,0l0,0l0,0l0,0L848,228z"/>
		<polygon class="st7" points="792.9,394 817.1,347.6 825.3,351.9 801.2,398.3 		"/>
		<polygon class="st5" points="822.2,337.7 846.4,291.3 854.6,295.6 830.5,342.1 		"/>
		<polygon class="st4" points="851.5,281.5 875.6,235.1 883.9,239.4 859.7,285.8 		"/>
		<polygon class="st4" points="805.3,400.5 829.5,354.1 857.9,368.8 833.7,415.3 		"/>
		<polygon class="st7" points="834.6,344.2 858.8,297.8 887.1,312.6 863,359 		"/>
		<polygon class="st5" points="863.9,288 888.1,241.5 916.4,256.3 892.3,302.7 		"/>
		
			<rect x="821.5" y="209.5" transform="matrix(-0.4617 0.887 -0.887 -0.4617 1392.4275 -422.0947)" class="st7" width="5.6" height="3.8"/>
		
			<rect x="817.5" y="217.2" transform="matrix(-0.4618 0.887 -0.887 -0.4618 1393.4835 -407.3083)" class="st5" width="5.6" height="3.8"/>
		
			<rect x="813.5" y="224.8" transform="matrix(-0.4619 0.8869 -0.8869 -0.4619 1394.494 -392.5615)" class="st8" width="5.6" height="3.8"/>
		
			<rect x="809.5" y="232.5" transform="matrix(-0.4617 0.887 -0.887 -0.4617 1395.344 -377.9684)" class="st4" width="5.6" height="3.8"/>
		<polygon class="st5" points="843,420.1 865.1,377.7 870.9,380.7 848.8,423.1 		"/>
		<polygon class="st5" points="853.6,425.6 936.3,266.7 942.1,269.7 859.3,428.6 		"/>
		<polygon class="st5" points="864.2,431.2 947,272.2 952.7,275.2 870,434.2 		"/>
		<polygon class="st5" points="874.9,436.8 957.7,277.8 963.4,280.8 880.7,439.8 		"/>
		<polygon class="st5" points="885.6,442.3 968.3,283.4 974.1,286.4 891.3,445.3 		"/>
		<polygon class="st5" points="896.3,447.9 979,288.9 984.8,291.9 902,450.9 		"/>
		<polygon class="st5" points="906.9,453.5 989.7,294.5 995.4,297.5 912.7,456.5 		"/>
		<polygon class="st5" points="917.6,459 1000.4,300.1 1006.1,303.1 923.4,462 		"/>
		<polygon class="st5" points="947.2,474.5 1000.7,371.8 1032.5,388.4 979.1,491.1 		"/>
		<polygon class="st7" points="933.9,467.5 958.1,421.1 966.4,425.4 942.2,471.8 		"/>
		<polygon class="st4" points="992.5,355 1016.7,308.6 1024.9,312.9 1000.8,359.3 		"/>
		<polygon class="st7" points="1005.8,361.9 1029.9,315.5 1061.8,332.1 1037.6,378.5 		"/>
	</g>
</g>
<g>
	<polygon class="st9" points="728.7,589.1 724.5,389.1 781,387.9 1007.1,383.2 1011.2,583.2 	"/>
	
		<rect x="753.7" y="534.3" transform="matrix(2.073978e-02 0.9998 -0.9998 2.073978e-02 1302.1373 -250.0064)" class="st10" width="50" height="10.8"/>
	<g>
		<path class="st11" d="M819.2,561.4l-0.4-17.3c0-1.4,1.1-2.5,2.5-2.6l17.3-0.4c1.4,0,2.5,1.1,2.6,2.5l0.4,17.3
			c0,1.4-1.1,2.5-2.5,2.6l-17.3,0.4C820.3,563.9,819.2,562.7,819.2,561.4z"/>
		
			<rect x="760.1" y="467.6" transform="matrix(2.073982e-02 0.9998 -0.9998 2.073982e-02 1273.0096 -359.2755)" class="st10" width="119.6" height="5.3"/>
		
			<rect x="768.6" y="467.4" transform="matrix(2.073157e-02 0.9998 -0.9998 2.073157e-02 1281.1724 -367.9527)" class="st10" width="119.6" height="5.3"/>
		
			<rect x="805.9" y="495.4" transform="matrix(2.075268e-02 0.9998 -0.9998 2.075268e-02 1318.0713 -349.6188)" class="st10" width="63.2" height="5.3"/>
		<path class="st12" d="M815.1,560.8c-1.2,0.8-2.9,0.5-3.7-0.7c-0.8-1.2-0.5-2.9,0.7-3.7c2.8-1.8,6.3-3.4,10.3-4.5
			c1.1-0.3,2.2-0.6,3.4-0.8c-2.3-1.3-4.7-2.9-7-4.6c-4.2-3.2-8.2-7-11.3-11.5c-0.8-1.2-0.5-2.9,0.7-3.7c1.2-0.8,2.9-0.5,3.7,0.7
			c2.7,3.9,6.3,7.4,10.1,10.2c4.7,3.5,9.8,6.2,14.1,7.9l0,0c0.9,0.4,1.6,1.3,1.7,2.4c0.1,1.5-1.1,2.7-2.5,2.8
			c-4.1,0.2-7.9,0.8-11.4,1.8C820.4,557.9,817.4,559.3,815.1,560.8z"/>
	</g>
	<g>
		<path class="st11" d="M866.6,560.4l-0.4-17.3c0-1.4,1.1-2.5,2.5-2.6l17.3-0.4c1.4,0,2.5,1.1,2.6,2.5l0.4,17.3
			c0,1.4-1.1,2.5-2.5,2.6l-17.3,0.4C867.8,562.9,866.6,561.8,866.6,560.4z"/>
		
			<rect x="807.6" y="466.6" transform="matrix(2.074710e-02 0.9998 -0.9998 2.074710e-02 1318.4822 -407.6828)" class="st10" width="119.6" height="5.3"/>
		
			<rect x="816.1" y="466.4" transform="matrix(2.074735e-02 0.9998 -0.9998 2.074735e-02 1326.6373 -416.3631)" class="st10" width="119.6" height="5.3"/>
		
			<rect x="853.4" y="494.4" transform="matrix(2.073740e-02 0.9998 -0.9998 2.073740e-02 1363.5621 -398.0147)" class="st10" width="63.2" height="5.3"/>
		<path class="st12" d="M862.6,559.8c-1.2,0.8-2.9,0.5-3.7-0.7c-0.8-1.2-0.5-2.9,0.7-3.7c2.8-1.8,6.3-3.4,10.3-4.5
			c1.1-0.3,2.2-0.6,3.4-0.8c-2.3-1.3-4.7-2.9-7-4.6c-4.2-3.2-8.2-7-11.3-11.5c-0.8-1.2-0.5-2.9,0.7-3.7c1.2-0.8,2.9-0.5,3.7,0.7
			c2.7,3.9,6.3,7.4,10.1,10.2c4.7,3.5,9.8,6.2,14.1,7.9l0,0c0.9,0.4,1.6,1.3,1.7,2.4c0.1,1.5-1.1,2.7-2.5,2.8
			c-4.1,0.2-7.9,0.8-11.4,1.8C867.9,557,864.9,558.3,862.6,559.8z"/>
	</g>
	<g>
		<path class="st11" d="M914.1,559.4l-0.4-17.3c0-1.4,1.1-2.5,2.5-2.6l17.3-0.4c1.4,0,2.5,1.1,2.6,2.5l0.4,17.3
			c0,1.4-1.1,2.5-2.5,2.6l-17.3,0.4C915.2,561.9,914.1,560.8,914.1,559.4z"/>
		
			<rect x="855" y="465.6" transform="matrix(2.073975e-02 0.9998 -0.9998 2.073975e-02 1363.9661 -456.0821)" class="st10" width="119.6" height="5.3"/>
		
			<rect x="863.5" y="465.4" transform="matrix(2.073956e-02 0.9998 -0.9998 2.073956e-02 1372.1218 -464.7621)" class="st10" width="119.6" height="5.3"/>
		
			<rect x="900.8" y="493.4" transform="matrix(2.075251e-02 0.9998 -0.9998 2.075251e-02 1409.0266 -446.4253)" class="st10" width="63.2" height="5.3"/>
		<path class="st12" d="M910,558.8c-1.2,0.8-2.9,0.5-3.7-0.7c-0.8-1.2-0.5-2.9,0.7-3.7c2.8-1.8,6.3-3.4,10.3-4.5
			c1.1-0.3,2.2-0.6,3.4-0.8c-2.3-1.3-4.7-2.9-7-4.6c-4.2-3.2-8.2-7-11.3-11.5c-0.8-1.2-0.5-2.9,0.7-3.7c1.2-0.8,2.9-0.5,3.7,0.7
			c2.7,3.9,6.3,7.4,10.1,10.2c4.7,3.5,9.8,6.2,14.1,7.9l0,0c0.9,0.4,1.6,1.3,1.7,2.4c0.1,1.5-1.1,2.7-2.5,2.8
			c-4.1,0.2-7.9,0.8-11.4,1.8C915.3,556,912.3,557.3,910,558.8z"/>
	</g>
	<g>
		<path class="st11" d="M961.5,558.4l-0.4-17.3c0-1.4,1.1-2.5,2.5-2.6l17.3-0.4c1.4,0,2.5,1.1,2.6,2.5l0.4,17.3
			c0,1.4-1.1,2.5-2.5,2.6l-17.3,0.4C962.7,560.9,961.5,559.8,961.5,558.4z"/>
		
			<rect x="902.5" y="464.6" transform="matrix(2.073994e-02 0.9998 -0.9998 2.073994e-02 1409.4443 -504.4857)" class="st10" width="119.6" height="5.3"/>
		
			<rect x="911" y="464.4" transform="matrix(2.074744e-02 0.9998 -0.9998 2.074744e-02 1417.5927 -513.1691)" class="st10" width="119.6" height="5.3"/>
		
			<rect x="948.3" y="492.5" transform="matrix(2.075057e-02 0.9998 -0.9998 2.075057e-02 1454.5063 -494.8268)" class="st10" width="63.2" height="5.3"/>
		<path class="st12" d="M957.5,557.8c-1.2,0.8-2.9,0.5-3.7-0.7c-0.8-1.2-0.5-2.9,0.7-3.7c2.8-1.8,6.3-3.4,10.3-4.5
			c1.1-0.3,2.2-0.6,3.4-0.8c-2.3-1.3-4.7-2.9-7-4.6c-4.2-3.2-8.2-7-11.3-11.5c-0.8-1.2-0.5-2.9,0.7-3.7c1.2-0.8,2.9-0.5,3.7,0.7
			c2.7,3.9,6.3,7.4,10.1,10.2c4.7,3.5,9.8,6.2,14.1,7.9l0,0c0.9,0.4,1.6,1.3,1.7,2.4c0.1,1.5-1.1,2.7-2.5,2.8
			c-4.1,0.2-7.9,0.8-11.4,1.8C962.8,555,959.8,556.3,957.5,557.8z"/>
	</g>
</g>
<g>
	<g>
		<polygon class="st9" points="474.9,447.9 697.1,447.9 697.1,385.1 697.1,133.4 474.9,133.4 		"/>
		<g>
			<g>
				<rect x="495.5" y="410.9" class="st10" width="81.1" height="6.9"/>
				<rect x="495.5" y="399.3" class="st10" width="181.1" height="6.9"/>
				<rect x="495.5" y="387.6" class="st10" width="181.1" height="6.9"/>
				<rect x="495.5" y="376" class="st10" width="181.1" height="6.9"/>
				<rect x="495.5" y="364.3" class="st10" width="181.1" height="6.9"/>
				<rect x="495.5" y="352.6" class="st10" width="181.1" height="6.9"/>
				<rect x="495.5" y="341" class="st10" width="181.1" height="6.9"/>
				<rect x="495.5" y="329.3" class="st10" width="181.1" height="6.9"/>
			</g>
			<g>
				<g>
					<g>
						<rect x="495.5" y="226.6" class="st13" width="81.8" height="7.6"/>
						<rect x="495.5" y="234.2" class="st4" width="18.3" height="49.8"/>
						<rect x="516.6" y="234.2" class="st7" width="18.3" height="24.9"/>
						<rect x="537.8" y="234.2" class="st5" width="18.3" height="79.9"/>
						<rect x="558.9" y="234.2" class="st14" width="18.3" height="66.2"/>
					</g>
					<ellipse class="st5" cx="641.1" cy="262" rx="35.4" ry="35.4"/>
				</g>
				<path class="st4" d="M641.1,262L614,239.3c-5.4,6.4-8.3,14.4-8.3,22.8c0,19.6,15.9,35.4,35.4,35.4V262z"/>
				<path class="st15" d="M641.1,262l-35.4,0c0,19.6,15.9,35.4,35.4,35.4V262z"/>
				<path class="st7" d="M641.1,262l-35.4,0c0,5.2,1.1,10.3,3.3,15L641.1,262z"/>
			</g>
			<g>
				<rect x="495.5" y="196.5" class="st10" width="36.1" height="6.9"/>
				<rect x="495.5" y="184.8" class="st10" width="80.6" height="6.9"/>
				<rect x="495.5" y="173.2" class="st10" width="80.6" height="6.9"/>
				<rect x="495.5" y="161.5" class="st10" width="80.6" height="6.9"/>
				<rect x="495.5" y="149.9" class="st10" width="80.6" height="6.9"/>
			</g>
			<g>
				<rect x="595.9" y="196.5" class="st10" width="36.1" height="6.9"/>
				<rect x="595.9" y="184.8" class="st10" width="80.6" height="6.9"/>
				<rect x="595.9" y="173.2" class="st10" width="80.6" height="6.9"/>
				<rect x="595.9" y="161.5" class="st10" width="80.6" height="6.9"/>
				<rect x="595.9" y="149.9" class="st10" width="80.6" height="6.9"/>
			</g>
		</g>
	</g>
	<g>
		<path class="st16" d="M680.8,147.1l-4.4-0.5c-5.6-0.6-10.7,3.4-11.3,9v0c-0.6,5.6,3.4,10.7,9,11.4l15.7,1.8l19,9.5L748,171
			l41.3-47.9l-28.5-26.4l-38.4,18.6c0,0-2,2-5,4.8l-15.8-1.8c-5.6-0.6-10.7,3.4-11.3,9c-0.2,1.5,0,3,0.5,4.4
			c-5.6-0.6-10.7,3.4-11.3,9C679.2,143.1,679.7,145.3,680.8,147.1z"/>
		<polygon class="st17" points="790.4,130.9 734.2,101.9 786.4,0.1 857.5,0.1 		"/>
		<path class="st17" d="M806.6,94.3l0-21.3c0-20.7-60.8,6.6-77.1,20.2l0,0l-50.9,55.4c-9.9,10.7,11.8,16,22.8,3.4l21.6-24.6
			c8.6-9.8,23.7-8.9,30.7,0.3c13.8,18.2-7.3,34.9-22.2,35.8l-45.3,3.6c-16.6,1.3-21.1,17.6-6.6,18l52.2,1.4
			c8.6,0.2,11.1-1.3,14.4-2.6l36.3-14.7c8.7-3.5,11.6-8.1,15.5-15.4l12.2-62L806.6,94.3z"/>
		<path class="st18" d="M687.8,177.1c-9.2-1.3-14.4,1.4-16.2,4.3c1.1,2.1,3.8,3.6,8.1,3.7l10.9,0.3
			C691,181.4,690.5,177.5,687.8,177.1z"/>
		<polygon class="st19" points="772.2,15.7 838.3,49.7 815.3,94.4 749.3,60.5 		"/>
		<polygon class="st7" points="756.2,37.5 830,75.4 868.6,0.1 775.3,0.1 		"/>
		<circle class="st7" cx="761.1" cy="52.4" r="3.3"/>
		<g>
			<path class="st20" d="M814.8,128.5L814.8,128.5c0.7,3,3.8,4.9,6.9,4.2l7.1-1.7c3-0.7,4.9-3.8,4.2-6.9v0c-0.7-3-3.8-4.9-6.9-4.2
				l-7.1,1.7C816,122.4,814.1,125.5,814.8,128.5z"/>
			<polygon class="st21" points="658.6,160.6 661.2,171.6 815.7,134.2 813.1,123.1 			"/>
			
				<rect x="733.8" y="67.9" transform="matrix(-0.2355 -0.9719 0.9719 -0.2355 767.5045 898.488)" class="st7" width="6.7" height="159"/>
			
				<rect x="736" y="67.9" transform="matrix(0.2351 0.972 -0.972 0.2351 707.0882 -603.7747)" class="st21" width="2.3" height="159"/>
			<polygon class="st20" points="658.6,160.6 661.2,171.6 645.5,169.6 			"/>
			<polygon class="st13" points="653.8,170.6 645.5,169.6 652.4,164.8 			"/>
			
				<rect x="813.3" y="122.8" transform="matrix(-0.2354 -0.9719 0.9719 -0.2354 887.8406 953.5396)" class="st22" width="11.4" height="9.5"/>
		</g>
		<path class="st17" d="M712.9,111.4l-34.2,37.2c-9.9,10.7,11.8,16,22.8,3.4l21.6-24.6c0.6-0.7,1.3-1.4,2-2L712.9,111.4z"/>
		<path class="st18" d="M693,147.7c-7.4,9.3-14.7,7.8-15.8,4.9c0-1.4,0.6-3.1,2.3-4.8l8.4-9.2C691.8,141.3,695,145.2,693,147.7z"/>
	</g>
	<g>
		<polygon class="st17" points="506.7,113.2 454.5,139.6 383.9,0.1 449.5,0.1 		"/>
		<path class="st17" d="M541.4,158.9l-77.6,39.3l-16.1-31.8c-12.4-24.5-9.3-49.7,6.1-57.5l21.6-11c15.4-7.8,34.4-1.6,42.2,13.8
			L541.4,158.9z"/>
		<path class="st17" d="M568.5,235.1L568.5,235.1c-5,2.5-11.2,0.5-13.8-4.5l-43.6-86.2c-2.5-5-0.5-11.2,4.5-13.8
			c5-2.5,11.2-0.5,13.8,4.5l43.6,86.2C575.6,226.4,573.5,232.6,568.5,235.1z"/>
		<path class="st23" d="M512.5,119.1l39.1,35c11.5,10.3,33.6,3.1,23.6-5.9l-49.2-44.1L512.5,119.1z"/>
		<path class="st17" d="M482,94.6c12.7-6.4,32.4,0.3,43.9,9.5c-2.1,5.8-22,29.7-59.4,38C457.7,124.6,464.7,103.3,482,94.6z"/>
		<path class="st18" d="M562.7,149.3c7.7,7.9,14.3,5.9,15,3.1c-0.1-1.3-0.9-2.8-2.5-4.2l-8.6-7.7
			C563.3,143.4,560.6,147.2,562.7,149.3z"/>
		<path class="st18" d="M571.9,227.4c-3.1-6.5-6.4-7.6-10.3-5.9c-3.8,2.2-4.8,5.4-1.4,11.8C562.6,237.7,574.1,231.9,571.9,227.4z"/>
		<path class="st17" d="M481.4,210.3L481.4,210.3c-5,2.6-11.2,0.5-13.8-4.5l-14.2-28c-2.5-5-0.5-11.2,4.5-13.8h0
			c5-2.6,11.2-0.5,13.8,4.5l14.2,28C488.4,201.5,486.4,207.7,481.4,210.3z"/>
		<path class="st17" d="M504.2,206.4L504.2,206.4c-5,2.6-11.2,0.5-13.8-4.5l-14.2-28c-2.5-5-0.5-11.2,4.5-13.8h0
			c5-2.6,11.2-0.5,13.8,4.5l14.2,28C511.3,197.6,509.3,203.8,504.2,206.4z"/>
		<path class="st17" d="M525.9,200L525.9,200c-5,2.5-11.2,0.5-13.8-4.5l-14.2-28c-2.5-5-0.5-11.2,4.5-13.8c5-2.5,11.2-0.5,13.8,4.5
			l14.2,28C532.9,191.3,530.9,197.5,525.9,200z"/>
		<polygon class="st19" points="473.6,29.9 407.4,63.5 430.1,108.4 496.4,74.8 		"/>
		<polygon class="st7" points="489.6,51.8 415.6,89.3 370.4,0.1 463.5,0.1 		"/>
		<circle class="st7" cx="484.5" cy="66.7" r="3.3"/>
	</g>
</g>
<g>
	<polygon class="st3" points="629.6,649.2 824.5,715.4 730.9,991.3 536,925.1 	"/>
	<g>
		<polygon class="st4" points="637.1,663.9 690.9,682.2 687.9,691.3 634,673 		"/>
		<polygon class="st5" points="631.5,680.4 801.1,738 790.5,769.2 620.9,711.6 		"/>
		<path class="st6" d="M633.4,694.9c0.2-0.1,0.5,0,0.7,0.2c0.1,0.2,0,0.5-0.2,0.7l-3.3,1.7l1.6,3.3c0.1,0.2,0,0.5-0.2,0.7
			c-0.2,0.1-0.5,0-0.7-0.2l-1.8-3.8l0,0l0,0l0,0l0,0l0,0l0,0l0,0l0,0v0l0,0l0,0l0,0v0l0,0v0l0,0v0l0,0v0l0,0l0,0l0,0v0l0,0l0,0l0,0
			l0,0l0,0v0l0,0v0v0l0,0v0v0v0v0v0l0,0l0,0l0,0v0l0,0v0l0,0v0l0,0v0l0,0l0,0l0,0l0,0l0,0l0,0l0,0l0,0l0,0v0l0,0v0l0,0v0l0,0l0,0
			l0,0l0,0l0,0l0,0l0,0l0,0l0,0l0,0l0,0v0l0,0l0,0l0,0l0,0l0,0l0,0l0,0l0,0l0,0l0,0l0,0l0,0l0,0l0,0l0,0l0,0l0,0l0,0l0,0l0,0l0,0
			l0,0l0,0l0,0l0,0l0,0l0,0l0,0l0,0l0,0l0,0l0,0l0,0l0,0l0,0l0,0l0,0l0,0l0,0l0,0l0,0l0,0l0,0l0,0l0,0l0,0l0,0l0,0l0,0l0,0l0,0l0,0
			l0,0L633.4,694.9L633.4,694.9z M790.7,748.4c-0.1-0.2-0.4-0.3-0.7-0.2c-0.2,0.1-0.3,0.4-0.2,0.7l1.6,3.3l-3.3,1.7
			c-0.2,0.1-0.3,0.4-0.2,0.7c0.1,0.2,0.4,0.3,0.7,0.2l3.7-1.9l0,0l0,0l0,0l0,0l0,0l0,0l0,0l0,0l0,0l0,0l0,0l0,0l0,0l0,0l0,0l0,0l0,0
			l0,0l0,0l0,0l0,0l0,0l0,0l0,0l0,0l0,0l0,0l0,0l0,0l0,0l0,0l0,0l0,0l0,0l0,0l0,0l0,0l0,0l0,0l0,0l0,0l0,0l0,0l0,0l0,0l0,0l0,0l0,0
			l0,0l0,0l0,0l0,0l0,0l0,0l0,0l0,0l0,0l0,0l0,0l0,0l0,0l0,0l0,0v0l0,0l0,0l0,0v0l0,0l0,0l0,0l0,0l0,0v0l0,0v0l0,0v0l0,0v0l0,0l0,0
			l0,0v0v0l0,0v0l0,0v0v0v0v0v0l0,0v0l0,0v0v0l0,0v0l0,0l0,0l0,0l0,0l0,0l0,0v0l0,0l0,0l0,0l0,0l0,0l0,0l0,0l0,0l0,0l0,0l0,0l0,0
			l0,0v0l0,0l0,0l0,0l0,0l0,0l0,0L790.7,748.4z"/>
		<polygon class="st7" points="618.4,719.2 667.9,736 664.9,744.9 615.4,728 		"/>
		<polygon class="st5" points="678.4,739.6 727.9,756.4 724.9,765.3 675.4,748.4 		"/>
		<polygon class="st4" points="738.4,760 787.9,776.8 784.9,785.7 735.4,768.8 		"/>
		<polygon class="st4" points="613.8,732.5 663.4,749.3 653.1,779.6 603.6,762.8 		"/>
		<polygon class="st7" points="673.9,752.9 723.4,769.7 713.1,800 663.6,783.2 		"/>
		<polygon class="st5" points="733.9,773.3 783.4,790.1 773.2,820.4 723.6,803.6 		"/>
		
			<rect x="800.6" y="720.5" transform="matrix(-0.9468 -0.3219 0.3219 -0.9468 1331.5458 1665.0707)" class="st7" width="5.6" height="3.8"/>
		
			<rect x="792.5" y="717.8" transform="matrix(-0.9468 -0.3219 0.3219 -0.9468 1316.6151 1657.0209)" class="st5" width="5.6" height="3.8"/>
		
			<rect x="784.3" y="715" transform="matrix(-0.9468 -0.3217 0.3217 -0.9468 1301.7916 1648.9131)" class="st8" width="5.6" height="3.8"/>
		
			<rect x="776.2" y="712.2" transform="matrix(-0.9468 -0.322 0.322 -0.9468 1286.5455 1641.0387)" class="st4" width="5.6" height="3.8"/>
		<polygon class="st5" points="600.2,772.8 645.4,788.1 643.3,794.3 598.1,778.9 		"/>
		<polygon class="st5" points="596.4,784 765.9,841.7 763.9,847.8 594.3,790.2 		"/>
		<polygon class="st5" points="592.5,795.4 762.1,853.1 760,859.2 590.4,801.6 		"/>
		<polygon class="st5" points="588.6,806.8 758.2,864.5 756.1,870.6 586.5,813 		"/>
		
			<rect x="578.9" y="846.9" transform="matrix(-0.9468 -0.3218 0.3218 -0.9468 1027.8467 1870.1639)" class="st5" width="179.1" height="6.5"/>
		<polygon class="st5" points="580.9,829.6 750.5,887.3 748.4,893.4 578.8,835.8 		"/>
		<polygon class="st5" points="577,841 746.6,898.7 744.5,904.8 574.9,847.2 		"/>
		<polygon class="st5" points="573.1,852.4 742.7,910.1 740.6,916.2 571,858.6 		"/>
		<polygon class="st5" points="562.4,884.1 672,921.3 660.4,955.4 550.8,918.1 		"/>
		<polygon class="st7" points="567.2,869.9 616.8,886.7 613.8,895.6 564.2,878.7 		"/>
		<polygon class="st4" points="687.3,910.7 736.8,927.5 733.8,936.4 684.3,919.5 		"/>
		<polygon class="st7" points="682.5,924.9 732,941.7 720.4,975.8 670.9,958.9 		"/>
	</g>
</g>
<g>
	<polygon class="st24" points="481.1,1082.9 531.1,1103.8 490.9,1200 432.2,1200 	"/>
	<path class="st24" d="M492.4,1031l74.4,31.1l-12.7,30.5c-9.8,23.5-29.4,36.5-44.2,30.3l-20.7-8.7c-14.8-6.2-21.8-23.3-15.6-38.1
		L492.4,1031z"/>
	<path class="st24" d="M483.2,1109.8c-12.8-3.2-26.3-19.3-22.4-34.8c5-2.8,30.6-5.9,61.9,10.8
		C518.5,1103.3,500.7,1114.2,483.2,1109.8z"/>
	<path class="st25" d="M474.9,1105.9c2.6,8.3,12,9.9,20.5,13.4c9.2,3.8,15.6,9.4,24.4,5.6c-7.7,1.7-13.9-4.4-23.1-8.2
		C488.2,1113.2,479.9,1113.1,474.9,1105.9z"/>
	<path class="st24" d="M479,1079.3l11.2-47.3c3.3-13.9-12.3-28.7-15.2-16.6l-14.1,59.6L479,1079.3z"/>
	<path class="st18" d="M479.7,1026.5c2.9-9.2-1.1-13.7-3.7-13.6c-0.4,0.7-0.8,1.5-1,2.5l-2.9,12.3
		C475.5,1028.7,478.9,1028.8,479.7,1026.5z"/>
	<path class="st24" d="M509.2,1095.5c-26.8,13.1-38.9-3.2-25.6-34.4C505.6,1058.9,515.9,1082.5,509.2,1095.5z"/>
	<path class="st25" d="M509.2,1095.5c1-13-7.9-32.2-25.6-34.4C505.6,1058.9,515.9,1082.5,509.2,1095.5z"/>
	<polygon class="st2" points="442.1,1157.2 505.6,1183.7 523.6,1140.7 460.1,1114.2 	"/>
	<circle class="st8" cx="461.5" cy="1127.4" r="3"/>
	<g>
		<g>
			<g>
				<rect x="486" y="779.2" class="st9" width="205.9" height="291.4"/>
				<g>
					<g>
						<rect x="505" y="817.9" class="st10" width="75.2" height="6.4"/>
						<rect x="505" y="828.7" class="st10" width="167.8" height="6.4"/>
						<rect x="505" y="839.5" class="st10" width="167.8" height="6.4"/>
						<rect x="505" y="850.3" class="st10" width="167.8" height="6.4"/>
						<rect x="505" y="861.1" class="st10" width="167.8" height="6.4"/>
						<rect x="505" y="871.9" class="st10" width="167.8" height="6.4"/>
						<rect x="505" y="882.7" class="st10" width="167.8" height="6.4"/>
					</g>
					<g>
						<rect x="505" y="902.8" class="st10" width="75.2" height="6.4"/>
						<rect x="505" y="913.6" class="st10" width="167.8" height="6.4"/>
						<rect x="505" y="924.4" class="st10" width="167.8" height="6.4"/>
						<rect x="505" y="935.2" class="st10" width="167.8" height="6.4"/>
						<rect x="505" y="946" class="st10" width="167.8" height="6.4"/>
					</g>
					<g>
						<rect x="564.5" y="967.4" class="st10" width="48.7" height="6.4"/>
						<rect x="505" y="967.4" class="st10" width="48.7" height="6.4"/>
					</g>
				</g>
			</g>
			<path class="st26" d="M599.7,998.1c0.4-0.1,0.8-0.1,1.2-0.1c1.1,0.1,2.1,0.7,2.7,1.8c1,1.6,1.1,4.2-0.6,7.5
				c-1,1.9-2.1,3.4-3.3,4.6v-1.8c0.5-0.7,1-1.5,1.5-2.4c1.5-3,1.4-5.3,0.6-6.6c-0.5-0.8-1.3-1.3-2.1-1.5V998.1L599.7,998.1z
				 M599.7,1013.2v2.6c0.9,0.4,1.8,0.5,2.9,0.4c1.5-0.2,3.1-0.9,4.6-2.1c2.7-2.1,5.1-6,6.3-11.4c0.1-0.4-0.3-0.5-0.8-0.3
				c-0.5,0.2-1,0.7-1.1,1c-1.1,5-3.1,8.3-5.3,10c-0.9,0.7-1.8,1.1-2.7,1.2c-1,0.1-2-0.1-3-0.7C600.3,1013.7,600,1013.5,599.7,1013.2
				L599.7,1013.2z M599.7,1019.1v-1.3c4.9-1.3,9.6-2.1,13.2-1.9c0.4,0,0.5,0.4,0.1,0.8c-0.4,0.4-1,0.7-1.4,0.7
				C608.4,1017.2,604.1,1017.9,599.7,1019.1z M588.9,1003.4c0.4-0.1,0.7-0.1,1.1,0c0.7,0.1,1.3,0.5,1.7,1.2c0.6,1,0.6,2.6-0.6,4.6
				c-0.5,0.8-1,1.6-1.6,2.2c0.2,0.3,0.5,0.6,0.7,0.8c0.9,0.9,2.1,1.4,3.3,1.5c1.1,0.1,2.2-0.1,3.3-0.8c-0.4-0.7-0.7-1.5-0.9-2.5
				c-1.3-5.3-0.5-8.7,1-10.4c0.9-1,1.9-1.7,3-1.9v1.5l-0.1,0c-0.5,0-1,0.1-1.4,0.5c-1.2,1.4-1.8,4.3-0.5,9.2
				c0.2,0.8,0.5,1.5,0.8,2.2c0.4-0.4,0.8-0.9,1.2-1.4v1.8c-0.2,0.2-0.4,0.4-0.6,0.6c0.2,0.3,0.4,0.5,0.6,0.7v2.6
				c-0.3-0.1-0.6-0.3-0.9-0.5c-0.6-0.4-1.1-0.9-1.6-1.5c-0.1,0.1-0.2,0.1-0.3,0.2c-1.7,1-3.4,1.3-4.9,1.2c-1.2-0.1-2.2-0.5-3.1-1.2
				v-4c0.1-0.2,0.3-0.4,0.4-0.6c1-1.6,0.9-2.9,0.5-3.7c-0.2-0.4-0.5-0.6-0.8-0.8V1003.4L588.9,1003.4z M599.7,1017.8v1.3
				c-2,0.5-4.1,1.2-6.1,1.9c-1.6,0.6-3.2,1.1-4.7,1.7v-1.2c1.6-0.7,3.4-1.3,5.1-1.9C595.9,1018.9,597.8,1018.3,599.7,1017.8z
				 M580.3,990.9c0.6-0.1,1.3,0,1.8,0.3c0.8,0.5,1.5,1.7,1.9,3.4c0.6,3.2,0,8.3-3.6,14.7c0.3,0.6,0.6,1.1,0.9,1.5
				c0.8,1.2,1.7,1.8,2.6,2c0.8,0.2,1.6,0.1,2.3-0.3c0.3-0.2,0.7-0.4,1-0.6c-0.5-0.8-0.9-1.7-1.1-2.8c-0.5-2.3,0.1-4,1-4.9
				c0.6-0.6,1.3-0.9,1.9-1.1v1.6c-0.1-0.1-0.2-0.1-0.4-0.1c-0.2,0-0.3-0.1-0.3-0.1c-0.5,0.5-0.7,1.5-0.3,3.4
				c0.2,0.8,0.4,1.5,0.7,2.1c0.1-0.1,0.1-0.2,0.2-0.3v4c-0.2-0.2-0.4-0.3-0.6-0.5c-0.2-0.2-0.4-0.4-0.6-0.6c-0.5,0.4-1,0.7-1.6,1
				c-1.3,0.6-2.6,0.9-3.8,0.6c-0.7-0.2-1.4-0.6-2.1-1.2v-7c1.9-4.5,2.2-8.1,1.7-10.5c-0.3-1.5-0.9-2.6-1.6-3.1l-0.1,0V990.9
				L580.3,990.9z M588.9,1021.5v1.2c-3.2,1.3-6.2,2.7-8.6,4v-1.2C582.8,1024.2,585.7,1022.8,588.9,1021.5z M576.6,1015.1
				c-0.3,0.4-0.9,0.8-1.4,0.8c-0.4,0-0.5-0.3-0.2-0.8c1.3-1.7,2.4-3.3,3.3-4.9c-0.9-2.2-1.6-5.2-1.9-9.4c-0.3-4.4,0.6-7.2,1.7-8.5
				l0,0l0,0c0.7-0.8,1.4-1.2,2.1-1.4v1.7c-0.3-0.2-0.6-0.3-0.7-0.2h0c-0.9,1-1.5,3.3-1.2,7.3c0.2,3.3,0.7,5.8,1.3,7.8
				c0.2-0.4,0.4-0.9,0.6-1.3v7c-0.3-0.3-0.6-0.7-0.9-1.1c-0.1-0.2-0.2-0.3-0.3-0.5C578.3,1012.7,577.5,1013.9,576.6,1015.1
				L576.6,1015.1z M580.3,1025.5v1.2c-2,1.1-3.6,2.1-4.6,3c-0.5,0.4-1.1,0.6-1.4,0.5c-0.3-0.1-0.2-0.6,0.3-1
				C575.8,1028.2,577.8,1026.9,580.3,1025.5z"/>
		</g>
		<polygon class="st8" points="448,1132.8 518.9,1162.5 503.2,1200 419.9,1200 		"/>
		<g>
			<path class="st25" d="M649.1,1038.2l-4.1,0.5c-5.2,0.6-9.9-3.2-10.5-8.4v0c-0.6-5.2,3.2-9.9,8.4-10.5l14.6-1.7l17.6-8.8l36.4,6.8
				l38.2,44.4l-26.4,24.5l-35.6-17.2c0,0-1.9-1.8-4.7-4.5l-14.6,1.7c-5.2,0.6-9.9-3.2-10.5-8.4l0,0c-0.2-1.4,0-2.8,0.4-4.1
				c-5.2,0.6-9.9-3.2-10.5-8.4l0,0C647.6,1042,648.1,1039.9,649.1,1038.2z"/>
			<polygon class="st24" points="750.7,1053.3 698.5,1080.1 760.1,1200 825.9,1200 			"/>
			<path class="st24" d="M765.7,1087.2l0,19.8c0,19.2-56.3-6.1-71.4-18.7l0,0l-47.2-51.3c-9.1-9.9,11-14.8,21.2-3.2l20,22.8
				c8,9.1,22,8.3,28.5-0.3c12.8-16.9-6.7-32.3-20.6-33.2l-41.9-3.3c-15.4-1.2-19.6-16.3-6.1-16.7l48.3-1.3c8-0.2,10.3,1.2,13.4,2.4
				l33.7,13.7c8,3.3,10.7,7.5,14.4,14.3l11.3,57.4L765.7,1087.2z"/>
			<path class="st18" d="M655.6,1010.5c-8.5,1.2-13.3-1.3-15-4c1.1-2,3.5-3.4,7.5-3.5l10.1-0.3
				C658.5,1006.5,658.1,1010.1,655.6,1010.5z"/>
			<polygon class="st2" points="733.8,1160 795,1128.5 773.8,1087.1 712.5,1118.5 			"/>
			<polygon class="st8" points="718.9,1139.8 787.3,1104.7 836.2,1200 749.8,1200 			"/>
			<circle class="st8" cx="723.5" cy="1126" r="3.1"/>
			<g>
				<path class="st27" d="M755.5,1049.5L755.5,1049.5c0.6-2.4,3-3.9,5.4-3.3l5.5,1.3c2.4,0.6,3.8,3,3.3,5.4v0
					c-0.6,2.4-3,3.9-5.4,3.3l-5.5-1.3C756.4,1054.3,755,1051.8,755.5,1049.5z"/>
				<polygon class="st28" points="633.2,1024.4 635.3,1015.7 756.3,1045.1 754.2,1053.7 				"/>
				
					<rect x="692.1" y="972.5" transform="matrix(-0.2351 0.972 -0.972 -0.2351 1863.7762 602.7516)" class="st7" width="5.3" height="124.5"/>
				
					<rect x="693.8" y="972.5" transform="matrix(0.2356 -0.9719 0.9719 0.2356 -474.535 1466.1251)" class="st28" width="1.8" height="124.5"/>
				<polygon class="st27" points="633.2,1024.4 635.3,1015.7 623,1017.3 				"/>
				<polygon class="st0" points="629.5,1016.5 623,1017.3 628.4,1021 				"/>
				
					<rect x="754.4" y="1046.5" transform="matrix(-0.2352 0.9719 -0.9719 -0.2352 1958.0917 559.8056)" class="st19" width="8.9" height="7.4"/>
			</g>
			<path class="st24" d="M678.8,1071.4l-31.6-34.4c-9.1-9.9,11-14.8,21.2-3.2l20,22.8c0.6,0.7,1.2,1.3,1.9,1.9L678.8,1071.4z"/>
			<path class="st18" d="M660.4,1037.7c-6.9-8.6-13.6-7.2-14.6-4.5c0,1.3,0.6,2.8,2.1,4.5l7.8,8.5
				C659.3,1043.6,662.2,1040,660.4,1037.7z"/>
		</g>
	</g>
</g>
<g>
	<path class="st29" d="M437.2,980.8l-153,0.1c-3.5,0-6.3,2.8-6.3,6.3l0,16.4c0,3.5,2.8,6.3,6.3,6.3l153-0.1c3.5,0,6.3-2.8,6.3-6.3
		l0-16.4C443.5,983.6,440.6,980.8,437.2,980.8z"/>
	
		<rect x="398.2" y="980" transform="matrix(-5.416344e-04 -1 1 -5.416344e-04 -582.365 1408.6036)" class="st19" width="29" height="30.7"/>
	
		<rect x="363.5" y="980" transform="matrix(-5.585088e-04 -1 1 -5.585088e-04 -617.0842 1373.9518)" class="st30" width="29" height="30.7"/>
	
		<rect x="328.9" y="980" transform="matrix(-5.412878e-04 -1 1 -5.412878e-04 -651.8163 1339.266)" class="st1" width="29" height="30.7"/>
	
		<rect x="294.2" y="980" transform="matrix(-5.415269e-04 -1 1 -5.415269e-04 -686.541 1304.5973)" class="st2" width="29" height="30.7"/>
	<path class="st31" d="M432.4,954.9l-150.6,26.7c-3.4,0.6-5.7,3.9-5.1,7.3l2.9,16.2c0.6,3.4,3.9,5.7,7.3,5.1l150.6-26.7
		c3.4-0.6,5.7-3.9,5.1-7.3l-2.9-16.2C439,956.6,435.8,954.3,432.4,954.9z"/>
	<polygon class="st7" points="393.2,961.9 398.2,990.4 428.5,985.1 423.4,956.5 	"/>
	<polygon class="st32" points="359,967.9 364.1,996.5 394.3,991.1 389.3,962.6 	"/>
	<polygon class="st33" points="324.8,974 329.9,1002.5 360.2,997.2 355.1,968.6 	"/>
	<polygon class="st34" points="290.7,980 295.7,1008.6 326,1003.2 321,974.7 	"/>
	<path class="st35" d="M423.1,930.3l-143.7,52.4c-3.2,1.2-4.9,4.8-3.8,8.1l5.6,15.4c1.2,3.2,4.8,4.9,8.1,3.8l143.7-52.4
		c3.2-1.2,4.9-4.8,3.8-8.1l-5.6-15.4C430,930.8,426.4,929.1,423.1,930.3z"/>
	<polygon class="st8" points="385.7,943.9 395.7,971.2 424.5,960.7 414.6,933.4 	"/>
	<polygon class="st36" points="353.1,955.8 363.1,983.1 391.9,972.6 382,945.3 	"/>
	<polygon class="st37" points="320.6,967.7 330.5,995 359.4,984.4 349.4,957.2 	"/>
	<polygon class="st38" points="288,979.6 297.9,1006.9 326.8,996.3 316.8,969.1 	"/>
	<path class="st9" d="M409.8,907.6l-132.4,76.6c-3,1.7-4,5.6-2.3,8.6l8.2,14.2c1.7,3,5.6,4,8.6,2.3l132.4-76.6c3-1.7,4-5.6,2.3-8.6
		l-8.2-14.2C416.6,906.9,412.8,905.9,409.8,907.6z"/>
	<polygon class="st39" points="375.3,927.6 389.8,952.7 416.4,937.3 401.9,912.2 	"/>
	<polygon class="st40" points="345.3,944.9 359.8,970.1 386.4,954.7 371.9,929.6 	"/>
	<polygon class="st41" points="315.2,962.3 329.8,987.4 356.4,972 341.8,946.9 	"/>
	<polygon class="st4" points="285.2,979.7 299.7,1004.8 326.3,989.4 311.8,964.3 	"/>
	<path class="st9" d="M392.7,887.6l-117.1,98.5c-2.6,2.2-3,6.2-0.8,8.9l10.6,12.6c2.2,2.6,6.2,3,8.9,0.8l117.1-98.5
		c2.6-2.2,3-6.2,0.8-8.9l-10.6-12.6C399.3,885.8,395.3,885.4,392.7,887.6z"/>
	<path class="st42" d="M392.7,887.6L309,958l18.6,22.2l83.7-70.3c2.6-2.2,3-6.2,0.8-8.9l-10.6-12.6
		C399.3,885.8,395.3,885.4,392.7,887.6z"/>
	<circle class="st29" cx="287" cy="995.4" r="4.2"/>
</g>
<g>
	<g>
		<path class="st8" d="M337.6,283.7l-47.7-20.2c-3.9-1.6-5.7-6.2-4.1-10.1l47-111.3c1.6-3.9,6.2-5.7,10.1-4.1l47.7,20.2
			c3.9,1.6,5.7,6.2,4.1,10.1l-47,111.3C346,283.5,341.5,285.3,337.6,283.7z"/>
		<polygon class="st9" points="346.6,269.3 294.1,247.1 331.9,157.6 384.3,179.8 		"/>
	</g>
	<g>
		
			<rect x="329.9" y="258.7" transform="matrix(0.9209 0.3897 -0.3897 0.9209 128.1578 -111.0882)" class="st4" width="15.8" height="3.3"/>
		<polygon class="st5" points="346.8,259.4 301,240 305.3,229.7 351.1,249.1 		"/>
		<path class="st6" d="M346.9,254.6c-0.1,0-0.2,0-0.2-0.1c0-0.1,0-0.2,0.1-0.2l1-0.5l-0.3-1.1c0-0.1,0-0.2,0.1-0.2
			c0.1,0,0.2,0,0.2,0.1l0.4,1.2l0,0l0,0v0l0,0v0l0,0v0l0,0v0l0,0v0l0,0l0,0v0v0l0,0v0l0,0v0v0v0l0,0v0v0v0v0v0l0,0v0v0l0,0v0v0v0
			l0,0v0l0,0l0,0v0v0l0,0v0l0,0v0l0,0v0l0,0v0l0,0v0l0,0v0l0,0v0l0,0l0,0l0,0v0l0,0l0,0l0,0l0,0l0,0l0,0l0,0l0,0l0,0v0l0,0l0,0l0,0
			l0,0l0,0l0,0l0,0l0,0l0,0l0,0l0,0l0,0l0,0l0,0l0,0l0,0l0,0v0l0,0l0,0l0,0l0,0l0,0l0,0l0,0l0,0l0,0l0,0l0,0l0,0l0,0l0,0l0,0l0,0
			l0,0l0,0l0,0l0,0l0,0l0,0l0,0l0,0v0l0,0l0,0l0,0l0,0l0,0l0,0l0,0l0,0l0,0l0,0l0,0l0,0l0,0l0,0l0,0l0,0L346.9,254.6L346.9,254.6z
			 M304.4,236.6c0,0.1,0.1,0.1,0.2,0.1c0.1,0,0.1-0.1,0.1-0.2l-0.3-1.1l1-0.5c0.1,0,0.1-0.1,0.1-0.2c0-0.1-0.1-0.1-0.2-0.1l-1.1,0.6
			h0l0,0l0,0l0,0h0l0,0l0,0l0,0l0,0l0,0h0l0,0h0l0,0l0,0l0,0l0,0l0,0l0,0l0,0l0,0l0,0l0,0l0,0l0,0l0,0l0,0l0,0l0,0l0,0l0,0l0,0l0,0
			l0,0l0,0l0,0l0,0l0,0l0,0l0,0l0,0l0,0l0,0l0,0l0,0l0,0l0,0l0,0l0,0l0,0l0,0l0,0l0,0l0,0l0,0l0,0l0,0l0,0l0,0l0,0l0,0l0,0l0,0v0
			l0,0v0l0,0l0,0l0,0v0l0,0v0l0,0v0l0,0l0,0l0,0v0l0,0v0l0,0v0l0,0v0l0,0v0l0,0l0,0v0v0l0,0v0l0,0l0,0v0v0v0v0v0l0,0v0v0l0,0l0,0v0
			l0,0v0v0v0v0v0l0,0v0v0l0,0v0v0l0,0v0l0,0v0l0,0v0l0,0v0l0,0v0L304.4,236.6z"/>
		
			<rect x="338.8" y="240.7" transform="matrix(0.9209 0.3897 -0.3897 0.9209 121.8029 -115.7294)" class="st7" width="14.5" height="3.2"/>
		
			<rect x="322.6" y="233.9" transform="matrix(0.9209 0.3897 -0.3897 0.9209 117.8527 -109.9576)" class="st5" width="14.5" height="3.2"/>
		
			<rect x="306.4" y="227" transform="matrix(0.9209 0.3897 -0.3897 0.9209 113.88 -104.1719)" class="st4" width="14.5" height="3.2"/>
		<polygon class="st4" points="354,242.2 340.7,236.6 344.9,226.6 358.3,232.2 		"/>
		<polygon class="st7" points="337.8,235.4 324.4,229.7 328.7,219.7 342.1,225.4 		"/>
		<polygon class="st5" points="321.6,228.5 308.2,222.8 312.5,212.8 325.8,218.5 		"/>
		
			<rect x="298.9" y="244.5" transform="matrix(0.9209 0.3897 -0.3897 0.9209 119.2305 -97.3844)" class="st7" width="1.6" height="1.3"/>
		
			<rect x="301.1" y="245.5" transform="matrix(0.921 0.3896 -0.3896 0.921 119.7383 -98.1533)" class="st5" width="1.6" height="1.3"/>
		<rect x="303.3" y="246.4" transform="matrix(0.9208 0.39 -0.39 0.9208 120.412 -99.0101)" class="st8" width="1.6" height="1.3"/>
		
			<rect x="305.5" y="247.3" transform="matrix(0.9209 0.3897 -0.3897 0.9209 120.8608 -99.7477)" class="st4" width="1.6" height="1.3"/>
		
			<rect x="347.3" y="224.2" transform="matrix(0.9209 0.3897 -0.3897 0.9209 115.8044 -120.1383)" class="st5" width="13.3" height="2.2"/>
		
			<rect x="313.9" y="213.4" transform="matrix(0.9209 0.3897 -0.3897 0.9209 110.3834 -115.064)" class="st5" width="49.7" height="2.2"/>
		
			<rect x="315.5" y="209.6" transform="matrix(0.9209 0.3897 -0.3897 0.9209 109.0393 -115.9795)" class="st5" width="49.7" height="2.2"/>
		
			<rect x="317.1" y="205.9" transform="matrix(0.9209 0.3897 -0.3897 0.9209 107.6998 -116.8979)" class="st5" width="49.7" height="2.2"/>
		
			<rect x="318.7" y="202.1" transform="matrix(0.9209 0.3898 -0.3898 0.9209 106.3655 -117.8205)" class="st5" width="49.7" height="2.2"/>
		
			<rect x="320.3" y="198.3" transform="matrix(0.9209 0.3897 -0.3897 0.9209 105.019 -118.734)" class="st5" width="49.7" height="2.2"/>
		
			<rect x="321.8" y="194.6" transform="matrix(0.9209 0.3897 -0.3897 0.9209 103.6806 -119.6536)" class="st5" width="49.7" height="2.2"/>
		
			<rect x="323.4" y="190.8" transform="matrix(0.9209 0.3897 -0.3897 0.9209 102.3377 -120.5697)" class="st5" width="49.7" height="2.2"/>
		<polygon class="st5" points="375.2,192.2 345.6,179.7 350.3,168.4 379.9,180.9 		"/>
		
			<rect x="359.9" y="191" transform="matrix(0.9209 0.3897 -0.3897 0.9209 104.0767 -127.8501)" class="st7" width="14.5" height="3.2"/>
		
			<rect x="327.4" y="177.3" transform="matrix(0.9209 0.3897 -0.3897 0.9209 96.1695 -116.3029)" class="st4" width="14.5" height="3.2"/>
		<polygon class="st7" points="342.8,178.5 329.4,172.8 334.1,161.6 347.5,167.2 		"/>
	</g>
</g>
<g>
	<g>
		<polygon class="st24" points="1043,468.3 1031.6,415.3 1193.3,380.7 1199,407.2 1199,434.9 		"/>
		<path class="st24" d="M993.9,488.7L977,409.8l32.3-6.9c24.8-5.3,46.7,3.4,50.1,19l4.7,22c3.4,15.7-6.7,31.2-22.3,34.6L993.9,488.7
			z"/>
		<path class="st24" d="M925.5,430.6L925.5,430.6c-1.1-5.1,2.2-10.2,7.3-11.3l68.3-14.6c5.1-1.1,10.2,2.2,11.3,7.3v0
			c1.1,5.1-2.2,10.2-7.3,11.3l-68.3,14.6C931.7,439,926.6,435.7,925.5,430.6z"/>
		<path class="st24" d="M915.9,453.7L915.9,453.7c-1.1-5.1,2.2-10.2,7.3-11.3l82.2-17.6c5.1-1.1,10.2,2.2,11.3,7.3l0,0
			c1.1,5.1-2.2,10.2-7.3,11.3L927.2,461C922.1,462.1,917,458.8,915.9,453.7z"/>
		<path class="st24" d="M909.2,476.1L909.2,476.1c1.1,5.1,6.2,8.4,11.3,7.3l93.3-20c5.1-1.1,8.4-6.2,7.3-11.3v0
			c-1.1-5.1-6.2-8.4-11.3-7.3l-93.3,20C911.4,465.9,908.1,471,909.2,476.1z"/>
		<path class="st24" d="M919.2,495L919.2,495c-1.1-5.1,2.2-10.2,7.3-11.3l87.5-18.8c5.1-1.1,10.2,2.2,11.3,7.3l0,0
			c1.1,5.1-2.2,10.2-7.3,11.3l-87.5,18.8C925.4,503.4,920.3,500.1,919.2,495z"/>
		<path class="st24" d="M1036.4,472.2l-40.5,26.8c-11.9,7.9-10.7,29.4-0.3,22.5l51.1-33.7L1036.4,472.2z"/>
		<path class="st24" d="M1065.5,450.6c2.7,12.9-7.9,29-18.9,37.1c-4.7-3.3-21.4-26.8-20-62.2C1044.3,421.7,1061.8,433,1065.5,450.6z
			"/>
		<path class="st18" d="M997.4,510c-8.9,5-8.6,11.4-6.3,12.7c1.2,0.2,2.7-0.1,4.4-1.3l8.9-5.9C1002.6,512,999.8,508.7,997.4,510z"/>
		<path class="st18" d="M925.3,499.9c6.6-1.3,8.3-3.9,7.7-7.9c-1-3.9-3.7-5.6-10.2-4C918.3,489.1,920.8,500.7,925.3,499.9z"/>
		<path class="st18" d="M915.4,481c6.6-1.3,8.3-3.9,7.7-7.9c-1-3.9-3.7-5.6-10.2-4C908.4,470.2,910.9,481.9,915.4,481z"/>
		<path class="st18" d="M922.3,458.5c6.6-1.3,8.3-3.9,7.7-7.9c-1-3.9-3.7-5.6-10.2-4C915.3,447.7,917.8,459.3,922.3,458.5z"/>
		<path class="st18" d="M932.8,435.2c6.6-1.3,8.3-3.9,7.7-7.9c-1-3.9-3.7-5.6-10.2-4C925.8,424.4,928.3,436.1,932.8,435.2z"/>
		<polygon class="st4" points="1125.6,459.5 1111.2,392.2 1065.7,402 1080.1,469.3 		"/>
		<polygon class="st2" points="1102.3,468.7 1086.2,393.4 1199,369.3 1199,447.9 		"/>
		<circle class="st8" cx="1090.1" cy="460.6" r="3"/>
	</g>
	<g>
		<g>
			<path class="st43" d="M873.1,830.5l138.9-39c5.7-1.6,9-7.5,7.4-13.2l-60.2-214.7c-1.6-5.7-7.5-9-13.2-7.4l-138.9,39
				c-5.7,1.6-9,7.5-7.4,13.2L860,823.1C861.6,828.7,867.5,832.1,873.1,830.5z"/>
			<polygon class="st9" points="864,807.3 1007.8,766.9 954.5,576.8 810.7,617.2 			"/>
			<polygon class="st9" points="810.7,617.2 864,807.3 1007.8,766.9 954.5,576.8 			"/>
		</g>
		<g>
			<polygon class="st4" points="871,796.8 855.5,741.7 867.6,738.3 883.1,793.4 			"/>
			<polygon class="st5" points="892.9,790.6 844.3,617.1 885.8,605.4 934.5,779 			"/>
			<path class="st6" d="M907.8,779.7c-0.3-0.1-0.4-0.4-0.2-0.7c0.2-0.3,0.6-0.4,0.9-0.2l4,1.6l2.6-3.4c0.2-0.3,0.6-0.4,0.9-0.2
				c0.3,0.1,0.4,0.4,0.2,0.7l-2.9,3.9l0,0l0,0l0,0l0,0l0,0l0,0l0,0l0,0l0,0l0,0l0,0l0,0l0,0l0,0l0,0l0,0l0,0l0,0l0,0l0,0l0,0l0,0
				l0,0l0,0l0,0l0,0l0,0l0,0l0,0l0,0l0,0l0,0l0,0l0,0l0,0l0,0l0,0l0,0l0,0l0,0l0,0l0,0l0,0l0,0l0,0l0,0l0,0l0,0l0,0l0,0l0,0l0,0l0,0
				l0,0l0,0h0l0,0l0,0l0,0l0,0l0,0l0,0l0,0l0,0l0,0l0,0l0,0l0,0l0,0l0,0l0,0l0,0l0,0l0,0l0,0h0l0,0h0l0,0l0,0l0,0l0,0l0,0h0l0,0h0
				l0,0l0,0l0,0h0h0l0,0l0,0l0,0l0,0h0h0h0l0,0h0l0,0l0,0l0,0l0,0h0l0,0l0,0l0,0h0l0,0h0l0,0h0l0,0l0,0l0,0h0l0,0h0l0,0l0,0l0,0l0,0
				l0,0l0,0l0,0l0,0L907.8,779.7L907.8,779.7z M862.6,618.7L862.6,618.7c-0.2,0.3-0.1,0.5,0.2,0.7c0.3,0.1,0.7,0,0.9-0.2l2.6-3.4
				l4,1.6c0.3,0.1,0.7,0,0.9-0.2c0.2-0.3,0.1-0.6-0.2-0.7l-4.5-1.8l0,0l0,0l0,0l0,0l0,0l0,0h0l0,0l0,0l0,0h0l0,0l0,0l0,0h0l0,0h0
				l0,0l0,0l0,0h0l0,0h0l0,0h0l0,0h0l0,0h0l0,0h0h0h0h0l0,0h0l0,0h0h0l0,0h0l0,0l0,0h0l0,0h0l0,0h0l0,0l0,0l0,0l0,0l0,0l0,0l0,0l0,0
				l0,0l0,0l0,0h0l0,0l0,0l0,0l0,0l0,0l0,0l0,0l0,0l0,0l0,0l0,0l0,0l0,0l0,0l0,0l0,0l0,0l0,0l0,0l0,0l0,0l0,0l0,0l0,0l0,0l0,0l0,0
				l0,0l0,0l0,0l0,0l0,0l0,0l0,0l0,0l0,0l0,0l0,0l0,0l0,0l0,0l0,0l0,0l0,0l0,0l0,0l0,0l0,0l0,0l0,0l0,0l0,0l0,0l0,0l0,0l0,0l0,0l0,0
				l0,0l0,0l0,0l0,0l0,0l0,0l0,0l0,0l0,0L862.6,618.7z"/>
			<polygon class="st7" points="944.6,776.1 930.4,725.4 942.1,722.1 956.4,772.8 			"/>
			<polygon class="st5" points="927.4,714.7 913.2,664 924.9,660.7 939.1,711.4 			"/>
			<polygon class="st4" points="910.1,653.3 895.9,602.6 907.7,599.3 921.9,650 			"/>
			<polygon class="st4" points="962.3,771.2 948.1,720.5 982.1,710.9 996.3,761.6 			"/>
			<polygon class="st7" points="945,709.7 930.8,659 964.9,649.5 979.1,700.2 			"/>
			<polygon class="st5" points="927.8,648.3 913.6,597.6 947.6,588 961.9,638.7 			"/>
			
				<rect x="822.7" y="622.8" transform="matrix(0.2699 0.9629 -0.9629 0.2699 1204.7892 -338.3379)" class="st7" width="5.7" height="5"/>
			
				<rect x="825" y="631.1" transform="matrix(0.2697 0.9629 -0.9629 0.2697 1214.6558 -334.4479)" class="st5" width="5.7" height="5"/>
			
				<rect x="827.3" y="639.5" transform="matrix(0.27 0.9629 -0.9629 0.27 1224.1887 -330.6925)" class="st9" width="5.7" height="5"/>
			
				<rect x="829.7" y="647.8" transform="matrix(0.2701 0.9628 -0.9628 0.2701 1233.7841 -326.9126)" class="st4" width="5.7" height="5"/>
		</g>
		<g>
			<polygon class="st24" points="1040.3,716.6 1028.6,769.5 1189.9,805.4 1199,764.8 1199,751.9 			"/>
			<path class="st24" d="M991.4,695.9l-17.5,78.8l32.2,7.2c24.8,5.5,46.7-3,50.2-18.6l4.9-21.9c3.5-15.6-6.5-31.3-22.1-34.7
				L991.4,695.9z"/>
			<path class="st24" d="M916.8,689L916.8,689c-1.1,5.1,2.1,10.2,7.2,11.3l87.4,19.4c5.1,1.1,10.2-2.1,11.3-7.2l0,0
				c1.1-5.1-2.1-10.2-7.2-11.3l-87.4-19.4C923,680.6,917.9,683.9,916.8,689z"/>
			<path class="st24" d="M1033.7,712.7l-40.3-27.1c-11.9-8-10.5-29.5-0.1-22.5l50.8,34.1L1033.7,712.7z"/>
			<path class="st24" d="M1062.7,734.5c2.8-12.9-7.7-29.1-18.6-37.2c-4.8,3.2-21.6,26.6-20.4,62.1
				C1041.3,763.2,1058.9,752,1062.7,734.5z"/>
			<path class="st18" d="M995.1,674.5c-8.8-5.1-8.5-11.5-6.2-12.8c1.2-0.2,2.7,0.1,4.4,1.3l8.9,6
				C1000.3,672.7,997.4,675.9,995.1,674.5z"/>
			<path class="st18" d="M922.9,684.1c6.6,1.3,8.3,4,7.6,7.9c-1.1,3.9-3.8,5.5-10.3,3.9C915.8,694.9,918.4,683.2,922.9,684.1z"/>
			<path class="st24" d="M959,761.6L959,761.6c-1.1,5.1,2.1,10.2,7.2,11.3l28.4,6.3c5.1,1.1,10.2-2.1,11.3-7.2l0,0
				c1.1-5.1-2.1-10.2-7.2-11.3l-28.4-6.3C965.3,753.2,960.2,756.5,959,761.6z"/>
			<path class="st24" d="M957.3,740.1L957.3,740.1c-1.1,5.1,2.1,10.2,7.2,11.3l28.4,6.3c5.1,1.1,10.2-2.1,11.3-7.2l0,0
				c1.1-5.1-2.1-10.2-7.2-11.3l-28.4-6.3C963.6,731.8,958.5,735,957.3,740.1z"/>
			<path class="st24" d="M958,719.2L958,719.2c-1.1,5.1,2.1,10.2,7.2,11.3l28.4,6.3c5.1,1.1,10.2-2.1,11.3-7.2l0,0
				c1.1-5.1-2.1-10.2-7.2-11.3l-28.4-6.3C964.3,710.9,959.2,714.1,958,719.2z"/>
		</g>
		<polygon class="st4" points="1105.1,794.1 1120,726.8 1074.5,716.7 1059.6,783.9 		"/>
		<polygon class="st2" points="1080,792.6 1096.7,717.5 1199,740.3 1199,819.1 		"/>
		<circle class="st8" cx="1072.3" cy="780.2" r="3"/>
	</g>
</g>
<g>
	<path class="st7" d="M263.2,895.3c-3.6,31.6-32.1,54.4-63.7,50.8c-31.6-3.6-54.3-32.1-50.8-63.8c3.6-31.6,32.1-54.4,63.7-50.8
		C244,835.1,266.8,863.6,263.2,895.3z"/>
	<path class="st27" d="M184.8,913.1l-13.2,11.3c-1.9,1.7-4.9,1.5-6.6-0.5h0c-1.7-1.9-1.5-4.9,0.5-6.6l13.2-11.3
		c1.9-1.7,4.9-1.5,6.6,0.5h0C187,908.5,186.8,911.4,184.8,913.1z"/>
	<path class="st27" d="M241.7,892.8c-2.2,19.8-20.1,34-39.9,31.8c-19.8-2.2-34-20.1-31.7-39.9c2.2-19.8,20.1-34,39.9-31.8
		C229.8,855.2,244,873.1,241.7,892.8z"/>
	<path class="st5" d="M235.1,892.1c-1.8,16.1-16.4,27.8-32.5,25.9c-16.1-1.8-27.7-16.4-25.9-32.6c1.8-16.2,16.4-27.8,32.5-25.9
		C225.4,861.4,237,875.9,235.1,892.1z"/>
	<path class="st8" d="M230.8,891.6c-1.6,13.7-14,23.6-27.7,22.1c-13.7-1.6-23.6-14-22.1-27.7c1.6-13.7,14-23.6,27.7-22.1
		C222.5,865.4,232.4,877.9,230.8,891.6z"/>
</g>
<g>
	<path class="st28" d="M238.9,195.8l55.8,90.3c1.5,2.5,0.8,5.8-1.7,7.3l-118.4,73.2c-2.5,1.5-5.7,0.7-7.3-1.7l-55.8-90.3
		c-1.5-2.5-0.8-5.8,1.7-7.3l118.4-73.2C234.1,192.5,237.4,193.3,238.9,195.8z"/>
	<path class="st9" d="M278.5,263.7l13.6,22c1.5,2.4,0.7,5.6-1.7,7.1l-11.9,7.4v-13.5c0.7,0,1.4-0.2,2-0.6c1.8-1.1,2.3-3.4,1.2-5.2
		c-0.7-1.1-1.9-1.8-3.2-1.8V263.7z M271.2,251.8l7.3,11.8v15.4c-0.7,0-1.4,0.2-2,0.6c-1.8,1.1-2.3,3.4-1.2,5.2
		c0.7,1.1,1.9,1.8,3.2,1.8v13.5l-7.3,4.5v-29.9c0.7,0,1.4-0.2,2-0.6c1.8-1.1,2.3-3.4,1.2-5.2c-0.7-1.1-1.9-1.8-3.2-1.8V251.8z
		 M263.9,240l7.3,11.9v15.4c-0.7,0-1.4,0.2-2,0.6c-1.8,1.1-2.3,3.4-1.2,5.2c0.7,1.1,1.9,1.8,3.2,1.8v29.9l-7.3,4.5v-46.3
		c0.7,0,1.4-0.2,2-0.6c1.8-1.1,2.3-3.4,1.2-5.2c-0.7-1.1-1.9-1.8-3.2-1.8V240z M256.6,228.1l7.3,11.9v15.4c-0.7,0-1.4,0.2-2,0.6
		c-1.8,1.1-2.3,3.4-1.2,5.2c0.7,1.1,1.9,1.8,3.2,1.8v46.3l-7.3,4.5v-62.6c0.7,0,1.4-0.2,2-0.6c1.8-1.1,2.3-3.4,1.2-5.2
		c-0.7-1.1-1.9-1.8-3.2-1.8V228.1z M249.2,216.3l7.3,11.9v15.4c-0.7,0-1.4,0.2-2,0.6c-1.8,1.1-2.3,3.4-1.2,5.2
		c0.7,1.1,1.9,1.8,3.2,1.8v62.6l-7.3,4.5v-79c0.7,0,1.4-0.2,2-0.6c1.8-1.1,2.3-3.4,1.2-5.2c-0.7-1.1-1.9-1.8-3.2-1.8V216.3z
		 M241.9,204.4l7.3,11.9v15.4c-0.7,0-1.4,0.2-2,0.6c-1.8,1.1-2.3,3.4-1.2,5.2c0.7,1.1,1.9,1.8,3.2,1.8v79l-7.3,4.5v-95.4
		c0.7,0,1.4-0.2,2-0.6c1.8-1.1,2.3-3.4,1.2-5.2c-0.7-1.1-1.9-1.8-3.2-1.8V204.4z M238.1,198.3l3.8,6.1v15.4c-0.7,0-1.4,0.2-2,0.6
		c-1.8,1.1-2.3,3.4-1.2,5.2c0.7,1.1,1.9,1.8,3.2,1.8v95.4l-7.3,4.5V215.5c0.7,0,1.4-0.2,2-0.6c1.8-1.1,2.3-3.4,1.2-5.2
		c-0.7-1.1-1.9-1.8-3.2-1.8v-12C236,196.2,237.3,197,238.1,198.3z M234.6,327.3l-59.5,36.8c-2.4,1.5-5.6,0.7-7.1-1.7l-54-87.4
		c-1.5-2.4-0.7-5.6,1.7-7.1l115.3-71.3c1.1-0.7,2.3-0.9,3.5-0.7v12c-0.7,0-1.4,0.2-2,0.6c-1.8,1.1-2.3,3.4-1.2,5.2
		c0.7,1.1,1.9,1.8,3.2,1.8V327.3z"/>
	<g>
		
			<rect x="240.7" y="198.7" transform="matrix(-0.5253 -0.8509 0.8509 -0.5253 192.6224 521.9263)" class="st44" width="2.4" height="17.2"/>
		
			<rect x="248" y="210.5" transform="matrix(-0.5252 -0.851 0.851 -0.5252 193.6625 546.2216)" class="st44" width="2.4" height="17.2"/>
		
			<rect x="255.3" y="222.4" transform="matrix(-0.5252 -0.851 0.851 -0.5252 194.731 570.5218)" class="st44" width="2.4" height="17.2"/>
		
			<rect x="262.7" y="234.2" transform="matrix(-0.5252 -0.851 0.851 -0.5252 195.8189 594.8253)" class="st44" width="2.4" height="17.2"/>
		
			<rect x="270" y="246.1" transform="matrix(-0.5253 -0.8509 0.8509 -0.5253 196.9352 619.134)" class="st44" width="2.4" height="17.2"/>
		
			<rect x="277.3" y="257.9" transform="matrix(-0.5253 -0.8509 0.8509 -0.5253 198.0137 643.4365)" class="st44" width="2.4" height="17.2"/>
		
			<rect x="284.6" y="269.8" transform="matrix(-0.5252 -0.851 0.851 -0.5252 199.0415 667.7272)" class="st44" width="2.4" height="17.2"/>
	</g>
	
		<rect x="182" y="258" transform="matrix(-0.5254 -0.8509 0.8509 -0.5254 143.7704 597.1904)" class="st45" width="113" height="1"/>
	
		<rect x="170.1" y="265.3" transform="matrix(-0.5254 -0.8509 0.8509 -0.5254 119.4309 598.2864)" class="st45" width="113" height="1"/>
	
		<rect x="158.2" y="272.7" transform="matrix(-0.5254 -0.8509 0.8509 -0.5254 95.0917 599.3833)" class="st45" width="113" height="1"/>
	<rect x="146.4" y="280" transform="matrix(-0.5254 -0.8509 0.8509 -0.5254 70.7528 600.48)" class="st45" width="113" height="1"/>
	
		<rect x="134.5" y="287.4" transform="matrix(-0.5254 -0.8509 0.8509 -0.5254 46.4128 601.5757)" class="st45" width="113" height="1"/>
	
		<rect x="122.6" y="294.7" transform="matrix(-0.5254 -0.8509 0.8509 -0.5254 22.0744 602.6729)" class="st45" width="113" height="1"/>
	<rect x="110.8" y="302" transform="matrix(-0.5254 -0.8509 0.8509 -0.5254 -2.2639 603.77)" class="st45" width="113" height="1"/>
	
		<rect x="98.9" y="309.4" transform="matrix(-0.5254 -0.8509 0.8509 -0.5254 -26.6044 604.8661)" class="st45" width="113" height="1"/>
</g>
<g>
	<path class="st20" d="M225.1,210.3L225.1,210.3c2.3,2.2,5.9,2.1,8-0.2l5-5.3c2.2-2.3,2.1-5.9-0.2-8l0,0c-2.3-2.2-5.9-2.1-8,0.2
		l-5,5.3C222.8,204.5,222.9,208.1,225.1,210.3z"/>
	<polygon class="st21" points="110.9,321.7 119.2,329.6 228.9,214.5 220.7,206.6 	"/>
	<polygon class="st7" points="112.6,323.3 117.5,328 227.2,212.9 222.4,208.2 	"/>
	
		<rect x="168.8" y="188.6" transform="matrix(0.7233 0.6905 -0.6905 0.7233 232.1423 -43.1555)" class="st21" width="2.3" height="159"/>
	<polygon class="st20" points="110.9,321.7 119.2,329.6 104.8,336.4 	"/>
	<polygon class="st13" points="112.4,332.8 104.8,336.4 108,328.7 	"/>
	<polygon class="st22" points="227.2,199.8 235.5,207.6 228.9,214.5 220.7,206.6 	"/>
</g>
<g>
	<polygon class="st2" points="481.5,699 683.2,646.1 691.9,679.6 490.3,732.5 	"/>
	<polygon class="st9" points="510,691.5 508,692.1 506.1,692.6 504.1,693.1 502.6,693.5 500.5,694 499,694.4 497,695 495.5,695.4 
		493.5,695.9 492,696.3 489.9,696.8 488.5,697.2 486.5,697.7 487.3,700.6 491.8,718 493.8,717.4 489.3,700.1 490.7,699.7 493,708.7 
		495.1,708.1 492.7,699.2 494.2,698.8 496.6,707.7 498.6,707.2 496.3,698.3 497.8,697.9 500.1,706.8 502.1,706.3 499.8,697.3 
		501.3,696.9 503.6,705.9 505.7,705.4 503.3,696.4 504.8,696 507.2,705 509.2,704.4 506.9,695.5 508.8,695 513.3,712.3 515.3,711.8 
		510.8,694.4 512.2,694.1 514.5,703 516.6,702.5 514.2,693.5 515.7,693.1 518.1,702.1 520.1,701.6 517.8,692.6 519.3,692.2 
		521.6,701.2 523.6,700.6 521.3,691.7 522.8,691.3 525.2,700.3 527.2,699.7 524.8,690.8 526.3,690.4 528.7,699.3 530.7,698.8 
		528.4,689.8 530.3,689.3 534.8,706.7 536.9,706.1 532.3,688.8 533.7,688.4 536.1,697.4 538.1,696.9 535.7,687.9 537.2,687.5 
		539.6,696.5 541.6,695.9 539.3,687 540.8,686.6 543.1,695.5 545.2,695 542.8,686 544.3,685.6 546.7,694.6 548.7,694.1 546.3,685.1 
		547.9,684.7 550.2,693.7 552.2,693.2 549.9,684.2 551.8,683.7 556.3,701 558.4,700.5 553.8,683.2 555.2,682.8 557.6,691.8 
		559.6,691.2 557.2,682.3 558.7,681.9 561.1,690.8 563.1,690.3 560.8,681.3 562.3,680.9 564.6,689.9 566.7,689.4 564.3,680.4 
		565.8,680 568.2,689 570.2,688.4 567.8,679.5 569.4,679.1 571.7,688 573.7,687.5 571.4,678.5 573.3,678 577.8,695.4 579.9,694.8 
		575.3,677.5 576.7,677.1 579.1,686.1 581.1,685.6 578.7,676.6 580.3,676.2 582.6,685.2 584.6,684.7 582.3,675.7 583.8,675.3 
		586.1,684.3 588.2,683.7 585.8,674.8 587.3,674.4 589.7,683.3 591.7,682.8 589.4,673.8 590.9,673.4 593.2,682.4 595.2,681.9 
		592.9,672.9 594.8,672.4 599.3,689.7 601.4,689.2 596.8,671.9 598.2,671.5 600.6,680.5 602.6,679.9 600.3,671 601.8,670.6 
		604.1,679.5 606.1,679 603.8,670 605.3,669.6 607.6,678.6 609.7,678.1 607.3,669.1 608.8,668.7 611.2,677.7 613.2,677.2 
		610.9,668.2 612.4,667.8 614.7,676.8 616.7,676.2 614.4,667.3 616.3,666.8 620.8,684.1 622.9,683.6 618.3,666.2 619.7,665.9 
		622.1,674.8 624.1,674.3 621.8,665.3 623.3,664.9 625.6,673.9 627.6,673.4 625.3,664.4 626.8,664 629.1,673 631.2,672.4 
		628.8,663.5 630.3,663.1 632.7,672 634.7,671.5 632.4,662.5 633.9,662.2 636.2,671.1 638.3,670.6 635.9,661.6 637.8,661.1 
		642.3,678.5 644.4,677.9 639.8,660.6 641.2,660.2 643.6,669.2 645.6,668.7 643.3,659.7 644.8,659.3 647.1,668.3 649.1,667.7 
		646.8,658.8 648.3,658.4 650.7,667.3 652.7,666.8 650.3,657.8 651.8,657.4 654.2,666.4 656.2,665.9 653.9,656.9 655.4,656.5 
		657.7,665.5 659.8,664.9 657.4,656 659.3,655.5 663.9,672.8 665.9,672.3 661.4,654.9 662.7,654.6 665.1,663.5 667.1,663 664.8,654 
		666.3,653.7 668.6,662.6 670.7,662.1 668.3,653.1 669.8,652.7 672.2,661.7 674.2,661.2 671.8,652.2 673.4,651.8 675.7,660.8 
		677.7,660.2 675.4,651.3 676.9,650.9 679.2,659.8 681.3,659.3 678.9,650.3 678.2,647.4 676.1,648 674.6,648.4 672.6,648.9 
		671.1,649.3 669.1,649.8 667.5,650.2 665.5,650.8 664,651.1 662,651.7 660.6,652 658.6,652.6 656.7,653.1 654.6,653.6 653.1,654 
		651.1,654.5 649.6,654.9 647.5,655.5 646,655.9 644,656.4 642.5,656.8 640.5,657.3 639.1,657.7 637,658.2 635.1,658.7 633.1,659.3 
		631.6,659.7 629.6,660.2 628.1,660.6 626,661.1 624.5,661.5 622.5,662 621,662.4 619,663 617.6,663.3 615.5,663.9 613.6,664.4 
		611.6,664.9 610.1,665.3 608.1,665.8 606.6,666.2 604.5,666.8 603,667.1 601,667.7 599.5,668.1 597.5,668.6 596.1,669 594,669.5 
		592.1,670 590.1,670.5 588.6,670.9 586.6,671.5 585.1,671.9 583,672.4 581.5,672.8 579.5,673.3 578,673.7 576,674.2 574.6,674.6 
		572.5,675.1 570.6,675.6 568.6,676.2 567.1,676.6 565.1,677.1 563.6,677.5 561.5,678 560,678.4 558,679 556.5,679.4 554.5,679.9 
		553.1,680.3 551,680.8 549.1,681.3 547.1,681.8 545.6,682.2 543.6,682.7 542,683.1 540,683.7 538.5,684.1 536.5,684.6 535,685 
		532.9,685.5 531.6,685.9 529.5,686.4 527.6,686.9 525.6,687.5 524.1,687.9 522,688.4 520.5,688.8 518.5,689.3 517,689.7 515,690.2 
		513.5,690.6 511.4,691.2 	"/>
</g>
<g>
	<path class="st46" d="M1034,808.2c-3.8,6.6-23.4,35-37.9,55.6c-15.5,19.9-37.1,46.8-42.3,52.3c-6.4,6.6,1.2,15.4,8.2,6.6
		c0.7-0.9,1.7-2.2,3.1-3.9c3.5,7.4,12.9,18,15.3,21.8c2.8,4.6,8.2,5.5,10.7,2.6c2.4-2.9-2.5-7.3-7-10.8c-4.5-3.5-13.7-9.3-13.5-17.2
		c0.1-1.8,0.7-3.6,1.7-5.5c2.7-3.5,5.8-7.4,9.1-11.6c2.3-2.5,4.6-4.9,6.4-7c2.2-2.8,8.5-11.3,16-21.7c7.9-10.2,14.2-18.6,16.2-21.6
		c1.6-2.3,3.2-5.2,4.9-8.1c3.1-4.3,5.9-8.4,8.5-12c1.5-1.5,3.1-2.6,4.8-3.2c7.5-2.5,15.7,4.7,20.3,8c4.6,3.3,10.3,6.8,12.4,3.6
		c2-3.2-0.4-8.1-5.6-9.5c-4.3-1.1-17.2-7.2-25.3-8.4c1.2-1.8,2.2-3.2,2.9-4.1C1049.1,804.9,1038.5,800.2,1034,808.2z"/>
	<path class="st7" d="M1033.4,870.8c6.4-0.2,15.4-2.6,22.7-14.1c10.8-17.1,6.8-25.9-0.6-33.8c-8.1-8.6-11.4-11.1-10.3-14.3
		c0.8-2.4-1-4.3-3.6-6s-2.9-1.8-6.3,0.7c-0.4,0.3-1.1,0.9-1.9,1.7v8.5c7.4-1.3,20.4,10.1,24.6,19.2c4.6,10-5,27.3-14.3,32.3
		c-2.6,1.4-6.3,2.1-10.3,2.2V870.8z M996.1,863.7c-1.3,1.8-5.6,5.6-10.6,10.2v5.5c2.4-1.3,4.7-2.1,6.8-2.1
		c10.7-0.1,21.3,20.7,19.2,31.3c-2,10.1-15.2,24-26,23.2v3.6c6.4,0.3,13.3-2.8,21.6-12.5c13-15,6.7-27.9,4.6-32.1
		c-3.6-7.4-12.4-12.5-6.5-20.5c5.9-8,13.3-1.3,21.5-0.1c1.4,0.2,3.8,0.6,6.7,0.6v-3.6c-10.4,0.2-23.1-4-25.3-11.4
		c-3.6-12.2,17.8-39.3,24.1-41.9c0.4-0.2,0.8-0.3,1.2-0.4v-8.5c-4.7,4.6-14.8,16.6-20.6,26C1006.7,841,1002.1,855.1,996.1,863.7z
		 M985.5,873.9c-5.2,4.7-11.1,10.2-15.5,15.2c-8.6,9.8-18.8,26.4-19.9,29.7c-1.3,4-1.1,4.3,1.2,6.2c2.3,1.9,4.7,3.1,6.8,1.7
		c2.8-1.9,6.1,0.4,16.7,5.7c3.6,1.8,7.1,3,10.8,3.2v-3.6c-0.2,0-0.4,0-0.7-0.1c-10.5-1.4-26.4-11.5-25.6-19.2
		c0.6-5.7,14.3-26.4,26.2-33.2V873.9z"/>
</g>
<g>
	<path class="st20" d="M782.8,599.8L782.8,599.8c-2.3,2.1-2.4,5.7-0.3,8l4.9,5.3c2.1,2.3,5.7,2.4,8,0.3l0,0c2.3-2.1,2.4-5.7,0.3-8
		l-4.9-5.3C788.7,597.8,785.1,597.7,782.8,599.8z"/>
	<polygon class="st21" points="678.7,478.8 670.3,486.5 778.3,603.3 786.6,595.6 	"/>
	<polygon class="st7" points="677,480.4 672,484.9 780,601.7 784.9,597.2 	"/>
	
		<rect x="727.3" y="461.5" transform="matrix(-0.7338 0.6794 -0.6794 -0.7338 1630.6317 443.1292)" class="st21" width="2.3" height="159"/>
	<polygon class="st20" points="678.7,478.8 670.3,486.5 664.5,471.8 	"/>
	<polygon class="st13" points="667.6,479.6 664.5,471.8 672,475.5 	"/>
	<polygon class="st22" points="793.1,602.6 784.7,610.3 778.3,603.3 786.6,595.6 	"/>
</g>
<g>
	<g>
		<path class="st8" d="M740.5,898.7l18.5-48.4c1.5-3.9,6-5.9,9.9-4.4l112.7,43.2c3.9,1.5,5.9,6,4.4,9.9l-18.5,48.4
			c-1.5,3.9-6,5.9-9.9,4.4l-112.7-43.2C741,907.1,739,902.6,740.5,898.7z"/>
		<polygon class="st9" points="755.2,907.1 775.6,853.9 866.2,888.6 845.8,941.9 		"/>
	</g>
	<g>
		<polygon class="st4" points="778.1,858.4 804.7,868.5 802.5,874.4 775.9,864.2 		"/>
		<polygon class="st5" points="774,869 857.8,901 850.2,921.1 766.4,889.1 		"/>
		<path class="st6" d="M774,878.2c0.1-0.1,0.3,0,0.3,0.1c0,0.2,0,0.3-0.2,0.4l-1.8,1.1l0.6,2.1c0,0.1,0,0.3-0.2,0.4
			c-0.1,0.1-0.3,0-0.3-0.1l-0.7-2.3l0,0l0,0l0,0l0,0v0l0,0v0l0,0v0l0,0v0l0,0v0l0,0v0l0,0v0l0,0v0v0l0,0l0,0l0,0v0v0v0v0v0v0v0l0,0
			v0v0l0,0v0v0l0,0v0l0,0v0l0,0v0l0,0v0l0,0v0l0,0l0,0l0,0v0l0,0v0l0,0l0,0l0,0l0,0l0,0l0,0l0,0v0l0,0v0l0,0l0,0l0,0l0,0l0,0l0,0
			l0,0l0,0l0,0l0,0l0,0v0l0,0l0,0l0,0v0l0,0v0l0,0l0,0l0,0l0,0l0,0l0,0l0,0l0,0l0,0l0,0l0,0l0,0l0,0h0l0,0h0l0,0l0,0l0,0l0,0l0,0
			l0,0l0,0l0,0l0,0l0,0h0l0,0l0,0l0,0l0,0l0,0l0,0l0,0l0,0l0,0l0,0l0,0h0l0,0l0,0l0,0l0,0l0,0l0,0l0,0l0,0L774,878.2L774,878.2z
			 M851.7,907.9L851.7,907.9c0-0.2-0.2-0.2-0.3-0.1c-0.1,0.1-0.2,0.3-0.2,0.4l0.6,2.1l-1.8,1.1c-0.1,0.1-0.2,0.3-0.2,0.4
			c0,0.1,0.2,0.2,0.3,0.1l2.1-1.3h0l0,0h0l0,0h0l0,0h0l0,0l0,0l0,0l0,0l0,0h0l0,0l0,0l0,0h0l0,0l0,0l0,0v0l0,0l0,0l0,0l0,0l0,0l0,0
			l0,0l0,0v0l0,0l0,0l0,0l0,0l0,0l0,0l0,0l0,0l0,0l0,0l0,0l0,0l0,0l0,0l0,0l0,0l0,0v0l0,0v0l0,0v0l0,0v0l0,0l0,0l0,0v0l0,0l0,0l0,0
			v0l0,0l0,0l0,0v0l0,0v0l0,0l0,0v0l0,0l0,0v0v0l0,0v0l0,0v0v0l0,0v0l0,0v0l0,0v0v0v0l0,0v0v0v0v0l0,0v0v0v0v0v0v0v0v0v0v0v0v0v0v0
			v0l0,0v0v0v0l0,0v0v0v0l0,0v0l0,0v0l0,0v0l0,0v0l0,0v0L851.7,907.9z"/>
		<polygon class="st7" points="764.5,893.9 789,903.3 786.8,909 762.3,899.6 		"/>
		<polygon class="st5" points="794.2,905.3 818.6,914.6 816.5,920.3 792,911 		"/>
		<polygon class="st4" points="823.8,916.6 848.3,926 846.1,931.7 821.7,922.3 		"/>
		<polygon class="st4" points="761.3,902.5 785.7,911.8 783.4,917.9 758.9,908.6 		"/>
		<polygon class="st7" points="790.9,913.8 815.4,923.2 813,929.3 788.6,919.9 		"/>
		<polygon class="st5" points="820.6,925.2 845,934.5 842.7,940.7 818.2,931.3 		"/>
		
			<rect x="858.7" y="889.8" transform="matrix(-0.9341 -0.3571 0.3571 -0.9341 1345.3918 2030.4581)" class="st7" width="2.8" height="2.5"/>
		
			<rect x="854.7" y="888.3" transform="matrix(-0.9341 -0.3571 0.3571 -0.9341 1338.0585 2026.0803)" class="st5" width="2.8" height="2.5"/>
		
			<rect x="850.7" y="886.7" transform="matrix(-0.9342 -0.3569 0.3569 -0.9342 1331.1376 2021.5292)" class="st9" width="2.8" height="2.5"/>
		
			<rect x="846.6" y="885.2" transform="matrix(-0.9342 -0.3569 0.3569 -0.9342 1323.9006 2017.1111)" class="st4" width="2.8" height="2.5"/>
	</g>
</g>
<g>
	<path class="st7" d="M670.1,534.4c-3.6,31.6-32.1,54.4-63.7,50.8c-31.6-3.6-54.3-32.1-50.8-63.8c3.6-31.6,32.1-54.4,63.7-50.8
		C650.9,474.2,673.7,502.8,670.1,534.4z"/>
	<path class="st27" d="M591.7,552.3l-13.2,11.3c-1.9,1.7-4.9,1.5-6.6-0.5h0c-1.7-1.9-1.5-4.9,0.5-6.6l13.2-11.3
		c1.9-1.7,4.9-1.5,6.6,0.5l0,0C593.9,547.6,593.7,550.6,591.7,552.3z"/>
	<path class="st27" d="M648.6,532c-2.2,19.8-20.1,34-39.9,31.8c-19.8-2.2-34-20.1-31.7-39.9c2.2-19.8,20.1-34,39.9-31.8
		C636.7,494.3,650.9,512.2,648.6,532z"/>
	<path class="st5" d="M642,531.2c-1.8,16.1-16.4,27.8-32.5,25.9c-16.1-1.8-27.7-16.4-25.9-32.6c1.8-16.1,16.4-27.8,32.5-25.9
		C632.3,500.5,643.9,515.1,642,531.2z"/>
	<path class="st8" d="M637.7,530.8c-1.6,13.7-14,23.6-27.7,22.1c-13.7-1.6-23.6-14-22.1-27.7c1.6-13.7,14-23.6,27.7-22.1
		C629.4,504.6,639.3,517,637.7,530.8z"/>
</g>
<g>
	<path class="st10" d="M519.3,594.8c-5.9,2.5-12.1,3.7-18.1,3.7v-42.6c0.5,0,1.1-0.1,1.6-0.3c1.1-0.5,1.9-1.3,2.3-2.4l39.9,15
		C540.5,579.7,531.6,589.6,519.3,594.8L519.3,594.8z M501.1,547.5c1.6,0,3.2,1,3.8,2.6c0.4,1,0.4,2.1,0.1,3.1l39.9,15
		c4.1-10.8,4.2-23.1-0.7-34.6c-7.5-17.9-24.9-28.7-43.1-28.7V547.5z M501.1,598.5c-18.3,0-35.6-10.8-43.1-28.7
		c-4.8-11.5-4.7-23.8-0.7-34.6l39.9,15c-0.4,1-0.4,2.1,0.1,3.1c0.7,1.6,2.2,2.6,3.8,2.6V598.5L501.1,598.5z M501.1,504.8
		c-6,0-12.2,1.2-18.1,3.7c-12.3,5.2-21.3,15-25.7,26.7l0,0l39.9,15c0.4-1,1.2-1.9,2.3-2.4c0.5-0.2,1.1-0.3,1.6-0.3V504.8z"/>
	<path class="st9" d="M521.8,587.5v-8l7.2,2.7C526.8,584.3,524.4,586,521.8,587.5L521.8,587.5z M521.8,579.6l7.2,2.7l0,0
		c1.6-1.5,3.2-3.1,4.5-4.9l-11.7-9.3V579.6z M510.4,581.3l3.1,9.9c-1,0.3-2.1,0.6-3.1,0.8V581.3L510.4,581.3z M521.8,568.1
		l-10.4-8.2c-0.3,0.4-0.6,0.8-1,1.1v8.1l4.2,7.8l7.2,2.7v8c-0.4,0.2-0.8,0.4-1.1,0.6l-6.1-11.3l0,0l7.2,2.7V568.1L521.8,568.1z
		 M510.4,555v-6.8C511.3,550.5,511.2,552.9,510.4,555z M508.9,576.3l1.6,5V592c-0.5,0.1-1,0.2-1.6,0.3V576.3L508.9,576.3z
		 M510.4,548.3v6.8l0,0.1l-1.5-0.6v-9.1c0.6,0.7,1,1.5,1.4,2.3C510.3,548,510.4,548.1,510.4,548.3L510.4,548.3z M510.4,561v8.1
		l-1.6-2.9v-3.8C509.4,561.9,510,561.5,510.4,561L510.4,561z M508.9,557.8c0.6-0.8,1.2-1.7,1.5-2.7l-1.5-0.6V557.8z M507.8,574.3
		l0.5,0.2l0.6,1.8v16c-0.4,0.1-0.7,0.1-1.1,0.2V574.3L507.8,574.3z M508.9,545.5v9.1l-1.1-0.4v-1.2c0.2-0.8,0.2-1.7,0-2.6v-6
		C508.2,544.7,508.5,545.1,508.9,545.5L508.9,545.5z M508.9,554.6l-1.1-0.4v4.8c0.4-0.4,0.7-0.7,1.1-1.1V554.6L508.9,554.6z
		 M508.9,562.3v3.8l-1.1-2V563C508.2,562.8,508.5,562.6,508.9,562.3L508.9,562.3z M507.8,574.3l0.5,0.2l0,0l-0.5-1.5V574.3z
		 M503.7,572.7l4.1,1.5v18.2c-1.4,0.2-2.7,0.4-4.1,0.5V572.7L503.7,572.7z M507.8,544.3v6c-0.1-0.5-0.2-0.9-0.4-1.3
		c-0.7-1.7-2.1-3-3.7-3.7v-3.3C505.2,542.5,506.6,543.3,507.8,544.3L507.8,544.3z M507.8,552.9v1.2l-0.3-0.1
		c-0.6,1.7-1.9,3.1-3.7,3.9l-0.1,0v3.3c0.4-0.1,0.8-0.3,1.3-0.4l0,0c1.1-0.5,2-1.1,2.8-1.8v-4.8l-0.3-0.1
		C507.6,553.7,507.7,553.3,507.8,552.9L507.8,552.9z M507.8,563v1.2l-0.5-0.9C507.5,563.2,507.7,563.1,507.8,563L507.8,563z
		 M507.8,573l-2.7-8.7c-0.5,0.1-0.9,0.3-1.4,0.4v8.2l4.1,1.5V573L507.8,573z M503.7,527.1v-16.8c0.6,0,1.2,0.1,1.7,0.1L503.7,527.1z
		 M499.1,571l4.6,1.7V593c-2.3,0.1-4.6,0.1-6.9-0.1L499.1,571L499.1,571z M503.7,510.3v16.8l-0.5,5.2l0,0l-8.7-3.3v-18.2
		C497.5,510.3,500.6,510.1,503.7,510.3L503.7,510.3z M503.7,542.1v3.3c-1.6-0.7-3.5-0.7-5.2,0c-1.8,0.8-3.1,2.2-3.7,3.9l-0.3-0.1
		v-4.8c0.8-0.7,1.8-1.4,2.8-1.8C499.4,541.6,501.7,541.5,503.7,542.1L503.7,542.1z M503.7,558v3.3c-3.3,0.9-6.8,0-9.2-2.3v-6
		c0.1,0.5,0.2,0.9,0.4,1.4C496.3,557.7,500.3,559.4,503.7,558L503.7,558z M503.7,564.6c-1.3,0.3-2.6,0.3-3.9,0.2l-0.7,6.3l4.6,1.7
		V564.6L503.7,564.6z M494.5,550.4c0.1-0.4,0.2-0.8,0.3-1.1l-0.3-0.1V550.4L494.5,550.4z M494.5,540.3v-1.1l0.5,0.9
		C494.8,540.1,494.6,540.2,494.5,540.3L494.5,540.3z M494.5,530.4l2.7,8.7c1.8-0.6,3.6-0.7,5.3-0.5l0.7-6.3l-8.7-3.3V530.4z
		 M494.5,510.8V529l-0.5-0.2l0,0l0.5,1.5V529l-0.5-0.2l-0.6-1.8v-16C493.8,510.9,494.1,510.9,494.5,510.8L494.5,510.8z M494.5,539.2
		v1.1c-0.4,0.2-0.7,0.4-1.1,0.7v-3.8L494.5,539.2L494.5,539.2z M494.5,544.3v4.8l-1.1-0.4v-3.3C493.7,545.1,494.1,544.7,494.5,544.3
		L494.5,544.3z M494.5,549.1l-1.1-0.4v9.1c0.3,0.4,0.7,0.8,1.1,1.1v-6c-0.2-0.9-0.2-1.7,0-2.6V549.1z M493.4,511v16l-4.7-14.8
		C490.3,511.7,491.8,511.3,493.4,511L493.4,511z M493.4,537.2l-5.7-10.7l-7.2-2.7v11.5l10.4,8.2c0.7-0.9,1.6-1.8,2.6-2.5V537.2
		L493.4,537.2z M493.4,545.5v3.3l-1.5-0.6c-0.9,2.3-0.9,4.9,0.1,7.3c0.4,0.9,0.8,1.6,1.4,2.3v-9.1l-1.5-0.6l0,0
		C492.2,547.2,492.8,546.3,493.4,545.5L493.4,545.5z M480.5,523.8v-8c0.4-0.2,0.8-0.4,1.1-0.6l6.1,11.3l0,0L480.5,523.8z
		 M480.5,515.8v8l-7.2-2.7l0,0c-1.6,1.5-3.2,3.1-4.5,4.9l11.7,9.3v-11.5l-7.2-2.7C475.5,519,477.9,517.3,480.5,515.8z"/>
</g>
<g>
	<path class="st4" d="M489.6,655.3c-5.9,2.5-12.1,3.7-18.1,3.7v-42.6c0.5,0,1.1-0.1,1.6-0.3c1.1-0.5,1.9-1.3,2.3-2.4l39.9,15
		C510.8,640.2,501.9,650.1,489.6,655.3L489.6,655.3z M471.4,608c1.6,0,3.2,1,3.8,2.6c0.4,1,0.4,2.1,0.1,3.1l39.9,15
		c4.1-10.8,4.2-23.1-0.7-34.6c-7.5-17.9-24.9-28.7-43.1-28.7V608z M471.4,659c-18.3,0-35.6-10.8-43.1-28.7
		c-4.8-11.5-4.7-23.8-0.7-34.6l39.9,15c-0.4,1-0.4,2.1,0.1,3.1c0.7,1.6,2.2,2.6,3.8,2.6V659L471.4,659z M471.4,565.3
		c-6,0-12.2,1.2-18.1,3.7c-12.3,5.2-21.3,15-25.7,26.7l0,0l39.9,15c0.4-1,1.2-1.9,2.3-2.4c0.5-0.2,1.1-0.3,1.6-0.3V565.3z"/>
	<path class="st47" d="M492.1,648v-8l7.2,2.7C497.1,644.8,494.7,646.5,492.1,648L492.1,648z M492.1,640.1l7.2,2.7l0,0
		c1.6-1.5,3.2-3.1,4.5-4.9l-11.7-9.3V640.1z M480.7,641.8l3.1,9.9c-1,0.3-2.1,0.6-3.1,0.8V641.8L480.7,641.8z M492.1,628.6
		l-10.4-8.2c-0.3,0.4-0.6,0.8-1,1.1v8.1l4.2,7.8l7.2,2.7v8c-0.4,0.2-0.8,0.4-1.1,0.6l-6.1-11.3l0,0l7.2,2.7V628.6L492.1,628.6z
		 M480.7,615.5v-6.8C481.6,611,481.5,613.4,480.7,615.5z M479.2,636.8l1.6,5v10.7c-0.5,0.1-1,0.2-1.6,0.3V636.8L479.2,636.8z
		 M480.7,608.8v6.8l0,0.1l-1.5-0.6V606c0.6,0.7,1,1.5,1.4,2.3C480.6,608.5,480.7,608.6,480.7,608.8L480.7,608.8z M480.7,621.5v8.1
		l-1.6-2.9v-3.8C479.7,622.4,480.3,622,480.7,621.5L480.7,621.5z M479.2,618.3c0.6-0.8,1.2-1.7,1.5-2.7l-1.5-0.6V618.3z
		 M478.1,634.8l0.5,0.2l0.6,1.8v16c-0.4,0.1-0.7,0.1-1.1,0.2V634.8L478.1,634.8z M479.2,606v9.1l-1.1-0.4v-1.2
		c0.2-0.8,0.2-1.7,0-2.6v-6C478.5,605.2,478.9,605.6,479.2,606L479.2,606z M479.2,615.1l-1.1-0.4v4.8c0.4-0.3,0.7-0.7,1.1-1.1V615.1
		L479.2,615.1z M479.2,622.8v3.8l-1.1-2v-1.1C478.5,623.3,478.8,623.1,479.2,622.8L479.2,622.8z M478.1,634.8l0.5,0.2l0,0l-0.5-1.5
		V634.8z M474,633.2l4.1,1.5V653c-1.4,0.2-2.7,0.4-4.1,0.5V633.2L474,633.2z M478.1,604.8v6c-0.1-0.5-0.2-0.9-0.4-1.3
		c-0.7-1.7-2.1-3-3.7-3.7v-3.3C475.5,603,477,603.8,478.1,604.8L478.1,604.8z M478.1,613.4v1.2l-0.3-0.1c-0.6,1.7-1.9,3.1-3.7,3.9
		l-0.1,0v3.3c0.4-0.1,0.8-0.3,1.3-0.4l0,0c1.1-0.5,2-1.1,2.8-1.8v-4.8l-0.3-0.1C477.9,614.2,478.1,613.8,478.1,613.4L478.1,613.4z
		 M478.1,623.5v1.1l-0.5-0.9C477.8,623.7,478,623.6,478.1,623.5L478.1,623.5z M478.1,633.5l-2.7-8.7c-0.5,0.1-0.9,0.3-1.4,0.4v8.2
		l4.1,1.5V633.5L478.1,633.5z M474,587.6v-16.8c0.6,0,1.2,0.1,1.7,0.1L474,587.6z M469.4,631.5l4.6,1.7v20.2
		c-2.3,0.1-4.6,0.1-6.9-0.1L469.4,631.5L469.4,631.5z M474,570.8v16.8l-0.5,5.2l0,0l-8.7-3.3v-18.2
		C467.8,570.8,470.9,570.6,474,570.8L474,570.8z M474,602.6v3.3c-1.6-0.7-3.5-0.7-5.2,0c-1.8,0.8-3.1,2.2-3.7,3.9l-0.3-0.1v-4.8
		c0.8-0.7,1.8-1.4,2.8-1.8C469.7,602.1,472,602,474,602.6L474,602.6z M474,618.5v3.3c-3.3,0.9-6.8,0-9.2-2.3v-6
		c0.1,0.5,0.2,0.9,0.4,1.4C466.6,618.2,470.6,619.9,474,618.5L474,618.5z M474,625.1c-1.3,0.3-2.6,0.3-3.9,0.2l-0.7,6.3l4.6,1.7
		V625.1L474,625.1z M464.8,610.9c0.1-0.4,0.2-0.8,0.3-1.1l-0.3-0.1V610.9L464.8,610.9z M464.8,600.8v-1.1l0.5,0.9
		C465.1,600.6,464.9,600.7,464.8,600.8L464.8,600.8z M464.8,590.9l2.7,8.7c1.8-0.6,3.6-0.7,5.3-0.5l0.7-6.3l-8.7-3.3V590.9z
		 M464.8,571.3v18.2l-0.5-0.2l0,0l0.5,1.5v-1.3l-0.5-0.2l-0.6-1.8v-16C464.1,571.4,464.4,571.4,464.8,571.3L464.8,571.3z
		 M464.8,599.7v1.1c-0.4,0.2-0.7,0.4-1.1,0.7v-3.8L464.8,599.7L464.8,599.7z M464.8,604.8v4.8l-1.1-0.4V606
		C464,605.6,464.4,605.2,464.8,604.8L464.8,604.8z M464.8,609.6l-1.1-0.4v9.1c0.3,0.4,0.7,0.8,1.1,1.1v-6c-0.2-0.9-0.2-1.7,0-2.6
		V609.6z M463.7,571.5v16l-4.7-14.8C460.6,572.2,462.1,571.8,463.7,571.5L463.7,571.5z M463.7,597.7L458,587l-7.2-2.7v11.5l10.4,8.2
		c0.7-0.9,1.6-1.8,2.6-2.5V597.7L463.7,597.7z M463.7,606v3.3l-1.5-0.6c-0.9,2.3-0.9,4.9,0.1,7.3c0.4,0.9,0.8,1.6,1.4,2.3v-9.1
		l-1.5-0.6l0,0C462.6,607.7,463.1,606.8,463.7,606L463.7,606z M450.8,584.3v-8c0.4-0.2,0.8-0.4,1.1-0.6L458,587l0,0L450.8,584.3z
		 M450.8,576.3v8l-7.2-2.7l0,0c-1.6,1.5-3.2,3.1-4.5,4.9l11.7,9.3v-11.5l-7.2-2.7C445.8,579.5,448.2,577.8,450.8,576.3z"/>
</g>
<g>
	<g>
		<path class="st43" d="M454.3,844.3c0-81.5-0.1-162.9-0.1-244.3c-0.1-81.4-0.1-162.8-0.1-244.3c0-8.1-7.7-18.5-10.2-16.8
			c-17.2,11.2-28.8,27.7-46,39c-17.2,11.3-34.4,22.5-51.5,33.8c-2.5,1.7-4.6,7.7-4.6,13.5c0,58,0,116,0,174c0,58,0,116,0,174
			c0,5.7,2.1,11.9,4.6,13.6c17.2,11.6,34.5,23.1,51.7,34.6c17.2,11.5,28.3,28.4,45.5,39.9C446,862.9,454.3,852.4,454.3,844.3z"/>
		<path class="st43" d="M333.4,776.6V421.8c0-5.9-5.3-10.7-11.9-10.7H150.8c-6.5,0-11.9,4.8-11.9,10.7v354.8
			c0,5.9,5.3,10.7,11.9,10.7h170.8C328.1,787.3,333.4,782.5,333.4,776.6z"/>
		<path class="st48" d="M323.2,428.2v20.7c0,2.8-2.3,5-5,5h-16.1c-2.8,0-5-2.3-5-5v-20.7c0-2.8,2.3-5,5-5h16.1
			C320.9,423.2,323.2,425.5,323.2,428.2z"/>
		<path class="st48" d="M290.5,428.2v20.7c0,2.8-2.3,5-5,5h-16.1c-2.8,0-5-2.3-5-5v-20.7c0-2.8,2.3-5,5-5h16.1
			C288.2,423.2,290.5,425.5,290.5,428.2z"/>
		<path class="st48" d="M257.7,428.2v20.7c0,2.8-2.3,5-5,5h-16.1c-2.8,0-5-2.3-5-5v-20.7c0-2.8,2.3-5,5-5h16.1
			C255.5,423.2,257.7,425.5,257.7,428.2z"/>
		<path class="st48" d="M323.2,468.4v20.7c0,2.8-2.3,5-5,5h-16.1c-2.8,0-5-2.3-5-5v-20.7c0-2.8,2.3-5,5-5l16.1,0
			C320.9,463.4,323.2,465.7,323.2,468.4z"/>
		<path class="st48" d="M290.5,468.4v20.7c0,2.8-2.3,5-5,5h-16.1c-2.8,0-5-2.3-5-5v-20.7c0-2.8,2.3-5,5-5h16.1
			C288.2,463.4,290.5,465.7,290.5,468.4z"/>
		<path class="st48" d="M257.7,468.4v20.7c0,2.8-2.3,5-5,5h-16.1c-2.8,0-5-2.3-5-5v-20.7c0-2.8,2.3-5,5-5h16.1
			C255.5,463.4,257.7,465.7,257.7,468.4z"/>
		<path class="st48" d="M323.2,508.6v20.7c0,2.8-2.3,5-5,5l-16.1,0c-2.8,0-5-2.3-5-5v-20.7c0-2.8,2.3-5,5-5h16.1
			C320.9,503.6,323.2,505.9,323.2,508.6z"/>
		<path class="st48" d="M290.5,508.6v20.7c0,2.8-2.3,5-5,5h-16.1c-2.8,0-5-2.3-5-5v-20.7c0-2.8,2.3-5,5-5h16.1
			C288.2,503.6,290.5,505.9,290.5,508.6z"/>
		<path class="st48" d="M257.7,508.6v20.7c0,2.8-2.3,5-5,5h-16.1c-2.8,0-5-2.3-5-5v-20.7c0-2.8,2.3-5,5-5h16.1
			C255.5,503.6,257.7,505.9,257.7,508.6z"/>
		<path class="st48" d="M323.2,548.8v20.7c0,2.8-2.3,5-5,5h-16.1c-2.8,0-5-2.3-5-5v-20.7c0-2.8,2.3-5,5-5h16.1
			C320.9,543.8,323.2,546.1,323.2,548.8z"/>
		<path class="st48" d="M290.5,548.8v20.7c0,2.8-2.3,5-5,5h-16.1c-2.8,0-5-2.3-5-5v-20.7c0-2.8,2.3-5,5-5h16.1
			C288.2,543.8,290.5,546.1,290.5,548.8z"/>
		<path class="st48" d="M257.7,548.8v20.7c0,2.8-2.3,5-5,5h-16.1c-2.8,0-5-2.3-5-5v-20.7c0-2.8,2.3-5,5-5h16.1
			C255.5,543.8,257.7,546.1,257.7,548.8z"/>
		<path class="st48" d="M323.2,589v20.7c0,2.8-2.3,5-5,5h-16.1c-2.8,0-5-2.3-5-5V589c0-2.8,2.3-5,5-5h16.1
			C320.9,584,323.2,586.3,323.2,589z"/>
		<path class="st48" d="M290.5,589v20.7c0,2.8-2.3,5-5,5h-16.1c-2.8,0-5-2.3-5-5V589c0-2.8,2.3-5,5-5h16.1
			C288.2,584,290.5,586.3,290.5,589z"/>
		<path class="st48" d="M257.7,589v20.7c0,2.8-2.3,5-5,5h-16.1c-2.8,0-5-2.3-5-5V589c0-2.8,2.3-5,5-5h16.1
			C255.5,584,257.7,586.3,257.7,589z"/>
		<path class="st48" d="M323.2,629.2v20.7c0,2.8-2.3,5-5,5h-16.1c-2.8,0-5-2.3-5-5v-20.7c0-2.8,2.3-5,5-5h16.1
			C320.9,624.2,323.2,626.5,323.2,629.2z"/>
		<path class="st48" d="M290.5,629.2v20.7c0,2.8-2.3,5-5,5h-16.1c-2.8,0-5-2.3-5-5v-20.7c0-2.8,2.3-5,5-5h16.1
			C288.2,624.2,290.5,626.5,290.5,629.2z"/>
		<path class="st48" d="M257.7,629.2v20.7c0,2.8-2.3,5-5,5h-16.1c-2.8,0-5-2.3-5-5v-20.7c0-2.8,2.3-5,5-5h16.1
			C255.5,624.2,257.7,626.5,257.7,629.2z"/>
		<path class="st48" d="M323.2,669.4v20.7c0,2.8-2.3,5-5,5h-16.1c-2.8,0-5-2.3-5-5v-20.7c0-2.8,2.3-5,5-5h16.1
			C320.9,664.4,323.2,666.7,323.2,669.4z"/>
		<path class="st48" d="M290.5,669.4v20.7c0,2.8-2.3,5-5,5h-16.1c-2.8,0-5-2.3-5-5v-20.7c0-2.8,2.3-5,5-5h16.1
			C288.2,664.4,290.5,666.7,290.5,669.4z"/>
		<path class="st48" d="M257.7,669.4v20.7c0,2.8-2.3,5-5,5h-16.1c-2.8,0-5-2.3-5-5v-20.7c0-2.8,2.3-5,5-5h16.1
			C255.5,664.4,257.7,666.7,257.7,669.4z"/>
		<path class="st48" d="M323.2,709.6v20.7c0,2.8-2.3,5-5,5h-16.1c-2.8,0-5-2.3-5-5v-20.7c0-2.8,2.3-5,5-5h16.1
			C320.9,704.6,323.2,706.9,323.2,709.6z"/>
		<path class="st48" d="M290.5,709.6v20.7c0,2.8-2.3,5-5,5h-16.1c-2.8,0-5-2.3-5-5v-20.7c0-2.8,2.3-5,5-5h16.1
			C288.2,704.6,290.5,706.9,290.5,709.6z"/>
		<path class="st48" d="M257.7,709.6v20.7c0,2.8-2.3,5-5,5h-16.1c-2.8,0-5-2.3-5-5v-20.7c0-2.8,2.3-5,5-5h16.1
			C255.5,704.6,257.7,706.9,257.7,709.6z"/>
		<path class="st48" d="M323.2,749.8v20.7c0,2.8-2.3,5-5,5h-16.1c-2.8,0-5-2.3-5-5v-20.7c0-2.8,2.3-5,5-5h16.1
			C320.9,744.8,323.2,747.1,323.2,749.8z"/>
		<path class="st48" d="M290.5,749.8v20.7c0,2.8-2.3,5-5,5h-16.1c-2.8,0-5-2.3-5-5v-20.7c0-2.8,2.3-5,5-5h16.1
			C288.2,744.8,290.5,747.1,290.5,749.8z"/>
		<path class="st48" d="M225.3,428.2v181.5c0,2.8-2.3,5-5,5h-16.1c-2.8,0-5-2.3-5-5V428.2c0-2.8,2.3-5,5-5h16.1
			C223,423.2,225.3,425.5,225.3,428.2z"/>
		<path class="st48" d="M225.3,629.2v60.9c0,2.8-2.3,5-5,5h-16.1c-2.8,0-5-2.3-5-5v-60.9c0-2.8,2.3-5,5-5h16.1
			C223,624.2,225.3,626.5,225.3,629.2z"/>
		<path class="st48" d="M225.3,709.6v20.7c0,2.8-2.3,5-5,5h-16.1c-2.8,0-5-2.3-5-5v-20.7c0-2.8,2.3-5,5-5h16.1
			C223,704.6,225.3,706.9,225.3,709.6z"/>
		<path class="st48" d="M257.7,750.7v18.9c0,3.2-2.7,5.9-5.9,5.9h-46.8c-3.2,0-5.9-2.7-5.9-5.9v-18.9c0-3.2,2.7-5.9,5.9-5.9h46.8
			C255.1,744.8,257.7,747.5,257.7,750.7z"/>
		<path class="st48" d="M186.9,662.1V536.3c0-2.1-1.2-3.8-2.6-3.8h-37.9c-1.4,0-2.6,1.7-2.6,3.8v125.8c0,2.1,1.2,3.8,2.6,3.8h37.9
			C185.7,665.8,186.9,664.1,186.9,662.1z"/>
		<path class="st13" d="M448.2,849.2c0-83.1-0.1-166.1-0.1-249.1c-0.1-83-0.1-166.1-0.1-249.1c0-8.2-2.1-13.6-4.7-11.9
			c-17.5,11.5-35.1,23-52.6,34.4c-17.5,11.5-35,23-52.6,34.4c-2.6,1.7-4.7,7.9-4.7,13.7c0,59.2,0,118.3,0,177.4
			c0,59.2,0,118.3,0,177.5c0,5.9,2.1,12.1,4.7,13.8c17.6,11.8,35.1,23.5,52.7,35.3c17.6,11.8,35.1,23.5,52.7,35.3
			C446.1,862.7,448.2,857.4,448.2,849.2z"/>
		<path class="st9" d="M440.6,361.8c0,79.4,0.1,158.8,0.1,238.1c0,79.4,0.1,158.8,0.1,238.2c-16-9.9-32-19.7-48-29.6
			c-16-9.9-32-19.8-48-29.6c0-59.9,0-119.9,0-179.8c0-59.9,0-119.8,0-179.7c16-9.6,31.9-19.2,47.9-28.8
			C408.6,381,424.6,371.4,440.6,361.8z"/>
		<path class="st4" d="M427.2,403.2c0,20.6,0,41.1,0,61.7c0,20.6,0,41.1,0,61.7c-2.5,0.5-5.1,0.9-7.6,1.4c0-20.1,0-40.3,0-60.4
			c0-20.1,0-40.3,0-60.4C422.2,405.9,424.7,404.5,427.2,403.2z"/>
		<path class="st5" d="M413.5,410.4c0,62.3,0,124.7,0,187.1c0,62.3,0,124.8,0,187.2c-4.3-2.3-8.7-4.5-13-6.7
			c-4.3-2.3-8.7-4.5-13-6.7c0-57.9,0-115.8,0-173.7c0-57.8,0-115.7,0-173.5c4.3-2.3,8.7-4.6,13-6.8
			C404.8,414.9,409.1,412.7,413.5,410.4z"/>
		<path class="st6" d="M403.1,429c0.2,0.3,0.2,1,0,1.4c-0.2,0.5-0.4,0.6-0.5,0.2c-0.7-1.4-1.4-2.8-2.1-4.2c-0.7,2.1-1.4,4.2-2.1,6.3
			c-0.2,0.5-0.4,0.5-0.5,0.2c-0.2-0.3-0.2-0.9,0-1.4c0.8-2.3,1.6-4.7,2.3-7c0,0,0,0,0,0c0,0,0,0,0,0c0,0,0,0,0-0.1c0,0,0,0,0,0
			c0,0,0,0,0,0s0,0,0,0c0,0,0,0,0,0c0,0,0,0,0,0s0,0,0,0c0,0,0,0,0,0c0,0,0,0,0,0c0,0,0,0,0,0c0,0,0,0,0,0c0,0,0,0,0,0c0,0,0,0,0,0
			c0,0,0,0,0,0c0,0,0,0,0,0c0,0,0,0,0,0c0,0,0,0,0,0s0,0,0,0c0,0,0,0,0,0c0,0,0,0,0,0c0,0,0,0,0,0c0,0,0,0,0,0c0,0,0,0,0,0
			c0,0,0,0,0,0c0,0,0,0,0,0c0,0,0,0,0,0c0,0,0,0,0,0c0,0,0,0,0,0c0,0,0,0,0,0c0,0,0,0,0,0c0,0,0,0,0,0c0,0,0,0,0,0c0,0,0,0,0,0
			c0,0,0,0,0,0c0,0,0,0,0,0c0,0,0,0,0,0c0,0,0,0,0,0c0,0,0,0,0,0c0,0,0,0,0,0c0,0,0,0,0,0c0,0,0,0,0,0c0,0,0,0,0,0c0,0,0,0,0,0
			c0,0,0,0,0,0c0,0,0,0,0,0c0,0,0,0,0,0c0,0,0,0,0,0c0,0,0,0,0,0c0,0,0,0,0,0c0,0,0,0,0,0c0,0,0,0,0,0c0,0,0,0,0,0c0,0,0,0,0,0
			c0,0,0,0,0,0c0,0,0,0,0,0c0,0,0,0,0,0c0,0,0,0,0,0c0,0,0,0,0,0c0,0,0,0,0,0c0,0,0,0,0,0c0,0,0,0,0,0c0,0,0,0,0,0c0,0,0,0,0,0
			c0,0,0,0,0,0c0,0,0,0,0,0c0,0,0,0,0,0c0,0,0,0,0,0c0,0,0,0,0,0c0,0,0,0,0,0C401.5,425.8,402.3,427.3,403.1,429L403.1,429z
			 M403.1,766.1L403.1,766.1c0.2-0.3,0.2-0.9,0-1.4c-0.2-0.5-0.4-0.5-0.5-0.2c-0.7,1.4-1.4,2.8-2.1,4.2c-0.7-2.1-1.4-4.2-2.1-6.2
			c-0.2-0.5-0.4-0.6-0.5-0.3c-0.2,0.3-0.2,0.9,0,1.4c0.8,2.3,1.6,4.7,2.3,7c0,0,0,0,0,0.1c0,0,0,0,0,0c0,0,0,0,0,0c0,0,0,0,0,0
			c0,0,0,0,0,0c0,0,0,0,0,0c0,0,0,0,0,0c0,0,0,0,0,0c0,0,0,0,0,0c0,0,0,0,0,0c0,0,0,0,0,0c0,0,0,0,0,0c0,0,0,0,0,0c0,0,0,0,0,0
			c0,0,0,0,0,0c0,0,0,0,0,0c0,0,0,0,0,0c0,0,0,0,0,0c0,0,0,0,0,0c0,0,0,0,0,0c0,0,0,0,0,0c0,0,0,0,0,0c0,0,0,0,0,0c0,0,0,0,0,0
			c0,0,0,0,0,0c0,0,0,0,0,0c0,0,0,0,0,0c0,0,0,0,0,0c0,0,0,0,0,0c0,0,0,0,0,0c0,0,0,0,0,0c0,0,0,0,0,0c0,0,0,0,0,0c0,0,0,0,0,0
			c0,0,0,0,0,0c0,0,0,0,0,0c0,0,0,0,0,0c0,0,0,0,0,0c0,0,0,0,0,0c0,0,0,0,0,0c0,0,0,0,0,0c0,0,0,0,0,0c0,0,0,0,0,0c0,0,0,0,0,0
			c0,0,0,0,0,0c0,0,0,0,0,0c0,0,0,0,0,0c0,0,0,0,0,0c0,0,0,0,0,0c0,0,0,0,0,0c0,0,0,0,0,0c0,0,0,0,0,0c0,0,0,0,0,0c0,0,0,0,0,0
			c0,0,0,0,0,0c0,0,0,0,0,0c0,0,0,0,0,0c0,0,0,0,0,0c0,0,0,0,0,0c0,0,0,0,0,0c0,0,0,0,0,0c0,0,0,0,0,0c0,0,0,0,0,0c0,0,0,0,0,0
			c0,0,0,0,0,0c0,0,0,0,0,0c0,0,0,0,0,0s0,0,0,0c0,0,0,0,0,0c0,0,0,0,0,0c0,0,0,0,0,0C401.5,769.3,402.3,767.7,403.1,766.1z"/>
		<path class="st4" d="M381.1,427.4c0,16.6,0,33.1,0,49.7c0,16.6,0,33.2,0,49.8c-2.5,0.5-4.9,1.1-7.4,1.6c0-16.2,0-32.5,0-48.7
			c0-16.2,0-32.4,0-48.6C376.2,429.9,378.7,428.6,381.1,427.4z"/>
		<path class="st5" d="M381.1,547.9c0,16.6,0,33.2,0,49.7c0,16.6,0,33.1,0,49.7c-2.5-0.3-4.9-0.7-7.4-1.1c0-16.2,0-32.4,0-48.7
			c0-16.2,0-32.4,0-48.6C376.2,548.6,378.7,548.2,381.1,547.9z"/>
		<path class="st4" d="M381.1,668.4c0,16.6,0,33.2,0,49.8c0,16.6,0,33.2,0,49.8c-2.5-1.3-4.9-2.5-7.4-3.8c0-16.2,0-32.4,0-48.7
			c0-16.2,0-32.4,0-48.7C376.2,667.4,378.7,667.9,381.1,668.4z"/>
		<path class="st4" d="M370,433.1c0,16,0,32,0,48c0,16,0,32.1,0,48.1c-4.2,0.9-8.4,1.8-12.6,2.8c-4.2,0.9-8.4,1.9-12.6,2.8
			c0-14.7,0-29.5,0-44.3c0-14.7,0-29.5,0-44.2c4.2-2.2,8.4-4.4,12.6-6.6C361.6,437.6,365.8,435.4,370,433.1z"/>
		<path class="st7" d="M370,549.6c0,16,0,32.1,0,48.1c0,16,0,32.1,0,48.1c-4.2-0.6-8.4-1.2-12.6-1.9c-4.2-0.6-8.4-1.2-12.6-1.9
			c0-14.7,0-29.5,0-44.2c0-14.7,0-29.5,0-44.2c4.2-0.7,8.4-1.4,12.6-2C361.6,550.9,365.8,550.3,370,549.6z"/>
		<path class="st5" d="M370,666.1c0,16,0,32.1,0,48.1c0,16,0,32.1,0,48.1c-4.2-2.2-8.4-4.4-12.6-6.5c-4.2-2.2-8.4-4.4-12.6-6.5
			c0-14.8,0-29.5,0-44.3c0-14.8,0-29.5,0-44.3c4.2,0.9,8.4,1.7,12.6,2.6C361.6,664.3,365.8,665.2,370,666.1z"/>
		<path class="st7" d="M427.2,779.6c0,4,0,8.1,0,12.2c-1-0.5-2-1-3-1.6c0-4.1,0-8.1,0-12.1C425.2,778.6,426.2,779.1,427.2,779.6z"/>
		<path class="st5" d="M427.2,760.9c0,4,0,8.1,0,12.2c-1-0.5-2-1-3-1.4c0-4,0-8.1,0-12.1C425.2,760,426.2,760.5,427.2,760.9z"/>
		<path class="st13" d="M427.2,742.2c0,4,0,8.1,0,12.2c-1-0.5-2-0.9-3-1.3c0-4,0-8.1,0-12.1C425.2,741.4,426.2,741.8,427.2,742.2z"
			/>
		<path class="st4" d="M427.2,723.5c0,4,0,8.1,0,12.2c-1-0.4-2-0.8-3-1.1c0-4,0-8.1,0-12.1C425.2,722.8,426.2,723.2,427.2,723.5z"/>
	</g>
	<g>
		<rect x="0" y="694.6" class="st17" width="122.8" height="59.3"/>
		<path class="st17" d="M179.9,684.1v88.2h-36.1c-27.8,0-49.2-14.3-49.2-31.8V716c0-17.5,14.3-31.8,31.8-31.8H179.9z"/>
		<path class="st17" d="M216.1,762c0,5.7-4.7,10.4-10.4,10.4h-52.8c-5.7,0-10.4-4.7-10.4-10.4s4.7-10.4,10.4-10.4h52.8
			C211.4,751.6,216.1,756.2,216.1,762z"/>
		<path class="st17" d="M225.5,739.5c0,5.7-4.7,10.4-10.4,10.4h-62.2c-5.7,0-10.4-4.7-10.4-10.4c0-5.7,4.7-10.4,10.4-10.4h62.2
			C220.9,729.1,225.5,733.8,225.5,739.5z"/>
		<path class="st17" d="M236.2,717L236.2,717c0-5.7-4.7-10.4-10.4-10.4h-72.9c-5.7,0-10.4,4.7-10.4,10.4v0c0,5.7,4.7,10.4,10.4,10.4
			h72.9C231.6,727.4,236.2,722.7,236.2,717z"/>
		<path class="st17" d="M261.2,694.5L261.2,694.5c0,5.7-4.7,10.4-10.4,10.4h-97.8c-5.7,0-10.4-4.7-10.4-10.4l0,0
			c0-5.7,4.7-10.4,10.4-10.4h97.8C256.5,684.1,261.2,688.8,261.2,694.5z"/>
		<path class="st17" d="M130.7,692.1l49.5-19.3c14.6-5.7,18.2-29,5.5-24l-62.3,24.3L130.7,692.1z"/>
		<path class="st17" d="M94.7,708.4c0.1-14.4,15.1-29.2,28.6-35.3c4.3,4.6,16.7,33.5,7.1,71.1C110.7,744.2,94.6,728.1,94.7,708.4z"
			/>
		<path class="st18" d="M181,660.5c10.6-3.3,11.8-10.2,9.6-12.1c-1.2-0.5-2.9-0.5-5,0.3l-10.9,4.2
			C175.9,657.3,178.2,661.4,181,660.5z"/>
		<path class="st18" d="M255.8,687.9c-7.3-0.2-9.8,2.3-10,6.6c0.2,4.4,2.7,6.8,10,6.6C260.8,701.1,260.8,688,255.8,687.9z"/>
		<rect x="32.4" y="685.1" class="st7" width="50.9" height="75.3"/>
		<rect x="0" y="680.7" class="st4" width="59.5" height="84.1"/>
		<circle class="st13" cx="70.6" cy="692.1" r="3.3"/>
	</g>
	<g>
		<rect x="0" y="465" class="st17" width="122.8" height="59.3"/>
		<path class="st17" d="M179.9,534.7v-88.2h-36.1c-27.8,0-49.2,14.3-49.2,31.8v24.6c0,17.5,14.3,31.8,31.8,31.8H179.9z"/>
		<path class="st17" d="M239.7,456.9L239.7,456.9c0-5.7-4.7-10.4-10.4-10.4h-76.4c-5.7,0-10.4,4.7-10.4,10.4l0,0
			c0,5.7,4.7,10.4,10.4,10.4h76.4C235,467.3,239.7,462.6,239.7,456.9z"/>
		<path class="st17" d="M255.3,479.4L255.3,479.4c0-5.7-4.7-10.4-10.4-10.4h-92c-5.7,0-10.4,4.7-10.4,10.4v0
			c0,5.7,4.7,10.4,10.4,10.4h92C250.6,489.8,255.3,485.1,255.3,479.4z"/>
		<path class="st17" d="M267.6,501.9L267.6,501.9c0,5.7-4.7,10.4-10.4,10.4H152.9c-5.7,0-10.4-4.7-10.4-10.4l0,0
			c0-5.7,4.7-10.4,10.4-10.4h104.3C262.9,491.5,267.6,496.1,267.6,501.9z"/>
		<path class="st17" d="M261.2,524.3L261.2,524.3c0-5.7-4.7-10.4-10.4-10.4h-97.8c-5.7,0-10.4,4.7-10.4,10.4v0
			c0,5.7,4.7,10.4,10.4,10.4h97.8C256.5,534.7,261.2,530,261.2,524.3z"/>
		<path class="st17" d="M130.7,526.8l49.5,19.3c14.6,5.7,18.2,29,5.5,24l-62.3-24.3L130.7,526.8z"/>
		<path class="st17" d="M94.7,510.4c0.1,14.4,15.1,29.2,28.6,35.3c4.3-4.6,16.7-33.5,7.1-71.1C110.7,474.7,94.6,490.8,94.7,510.4z"
			/>
		<path class="st18" d="M181,558.3c10.6,3.3,11.8,10.2,9.6,12.1c-1.2,0.5-2.9,0.5-5-0.3l-10.9-4.2
			C175.9,561.6,178.2,557.5,181,558.3z"/>
		<path class="st18" d="M255.8,531c-7.3,0.2-9.8-2.3-10-6.6c0.2-4.4,2.7-6.8,10-6.6C260.8,517.8,260.8,530.9,255.8,531z"/>
		<path class="st18" d="M262.1,508.5c-7.3,0.2-9.8-2.3-10-6.6c0.2-4.4,2.7-6.8,10-6.6C267.1,495.3,267.1,508.4,262.1,508.5z"/>
		<path class="st18" d="M249.5,486c-7.3,0.2-9.8-2.3-10-6.6c0.2-4.4,2.7-6.8,10-6.6C254.5,472.8,254.5,485.9,249.5,486z"/>
		<path class="st18" d="M233,463.6c-7.3,0.2-9.8-2.3-10-6.6c0.2-4.4,2.7-6.8,10-6.6C238,450.4,238,463.4,233,463.6z"/>
		<rect x="32.4" y="458.5" class="st7" width="50.9" height="75.3"/>
		<rect x="0" y="454.1" class="st4" width="59.5" height="84.1"/>
		<circle class="st13" cx="70.6" cy="526.8" r="3.3"/>
	</g>
</g>
</svg>
